<?xml version="1.0" encoding="UTF-8"?>
<svg width="66px" height="66px" viewBox="0 0 66 66" version="1.1" xmlns="http://www.w3.org/2000/svg" xmlns:xlink="http://www.w3.org/1999/xlink">
    <!-- Generator: Sketch 51.3 (57544) - http://www.bohemiancoding.com/sketch -->
    <title>article-solid</title>
    <desc>Created with Sketch.</desc>
    <defs></defs>
    <g id="main" stroke="none" stroke-width="1" fill="none" fill-rule="evenodd">
        <g id="res" transform="translate(-392.000000, -924.000000)">
            <g id="article-solid" transform="translate(392.000000, 924.000000)">
                <g id="Group-5" transform="translate(13.000000, 12.000000)">
                    <path d="M3,6.8 L39,7 L39,43 L5.85837312,43 C3.08509826,43 0.836914505,40.761425 0.836914505,38 L1,4 L3,6.8 Z M22.8369145,35.0741804 L22.8369145,37.9401613 L35.8369145,37.9401613 L35.8369145,35.0741804 L22.8369145,35.0741804 Z" id="Combined-Shape" fill="#FFFFFF"></path>
                    <path d="M39,-3.90909091e-07 L5.89473684,-3.90909091e-07" id="Shape" stroke="#FFFFFF" stroke-width="2" stroke-linejoin="round"></path>
                    <path d="M5.89473684,3.90909091 L38.0263158,3.90909091" id="Shape" stroke="#FFFFFF" stroke-width="2" stroke-linejoin="round"></path>
                    <path d="M5.89473684,7.81818182 C3.74373318,7.81818182 2,6.06802211 2,3.90909091 C2,1.75015971 3.74373318,0 5.89473684,0" id="Shape" stroke="#FFFFFF" stroke-width="2" stroke-linejoin="round"></path>
                </g>
            </g>
            <g id="Group-5" transform="translate(407.000000, 936.000000)" stroke="#FFFFFF" stroke-linejoin="round" stroke-width="2">
                <g id="Group">
                    <path d="M3.89473684,7.81818182 L37,7.81818182 L37,43 L4.86842105,43 C2.17966649,43 0,40.8123017 0,38.1136364 L0,3.90909091" id="Shape"></path>
                    <path d="M37,-3.90909091e-07 L3.89473684,-3.90909091e-07" id="Shape"></path>
                    <path d="M3.89473684,3.90909091 L36.0263158,3.90909091" id="Shape"></path>
                    <path d="M3.89473684,7.81818182 C1.74373318,7.81818182 0,6.06802211 0,3.90909091 C0,1.75015971 1.74373318,0 3.89473684,0" id="Shape"></path>
                </g>
            </g>
        </g>
    </g>
</svg>