<?xml version="1.0" encoding="UTF-8"?>
<svg width="66px" height="66px" viewBox="0 0 66 66" version="1.1" xmlns="http://www.w3.org/2000/svg" xmlns:xlink="http://www.w3.org/1999/xlink">
    <!-- Generator: Sketch 51.3 (57544) - http://www.bohemiancoding.com/sketch -->
    <title>back</title>
    <desc>Created with Sketch.</desc>
    <defs></defs>
    <g id="main" stroke="none" stroke-width="1" fill="none" fill-rule="evenodd">
        <g id="res" transform="translate(-12.000000, -841.000000)" stroke="#FFFFFF" stroke-width="2">
            <g id="back" transform="translate(12.000000, 841.000000)">
                <path d="M33,56 C20.3173359,56 10,45.6831693 10,33.0011263 C10,20.3168307 20.3173359,10 33,10 C45.6826641,10 56,20.3168307 56,33.0011263 C56,45.6831693 45.6826641,56 33,56 L33,56 Z M23,32.9815388 C23,34.0134132 23.6797386,34.8003893 24.5139632,34.8003893 L31.6131907,34.8003893 C33.1200238,34.8003893 34.3487819,36.2230001 34.3487819,37.9703074 L34.3487819,42.5793462 C34.3487819,42.9453177 34.7290553,43.1461892 34.9643494,42.8737744 L42.6506239,33.9748899 C43.1164587,33.4355635 43.1164587,32.5632857 42.6506239,32.0267111 L34.9643494,23.1250749 C34.7266786,22.85266 34.3487819,23.0590349 34.3487819,23.419503 L34.3487819,28.0560585 C34.3487819,29.8033658 33.1200238,31.2259765 31.6131907,31.2259765 L24.5139632,31.2259765 C23.6797386,31.2259765 23,32.0129527 23,32.9815388 Z" id="arrow-circle-left" transform="translate(33.000000, 33.000000) scale(-1, 1) translate(-33.000000, -33.000000) "></path>
            </g>
        </g>
    </g>
</svg>