<?xml version="1.0" encoding="UTF-8"?>
<svg width="66px" height="66px" viewBox="0 0 66 66" version="1.1" xmlns="http://www.w3.org/2000/svg" xmlns:xlink="http://www.w3.org/1999/xlink">
    <!-- Generator: Sketch 51.3 (57544) - http://www.bohemiancoding.com/sketch -->
    <title>search</title>
    <desc>Created with Sketch.</desc>
    <defs></defs>
    <g id="main" stroke="none" stroke-width="1" fill="none" fill-rule="evenodd">
        <g id="res" transform="translate(-240.000000, -841.000000)" fill="#FFFFFF">
            <g id="search" transform="translate(240.000000, 841.000000)">
                <g id="Group-2" transform="translate(12.000000, 11.000000)">
                    <path d="M16.5,2.26666667 C8.6152,2.26666667 2.2,8.8774 2.2,17 C2.2,25.1237333 8.6152,31.7333333 16.5,31.7333333 C24.3848,31.7333333 30.8,25.1237333 30.8,17 C30.8,8.8774 24.3848,2.26666667 16.5,2.26666667 Z M16.5,34 C7.4019,34 0,26.3749333 0,17 C0,7.6262 7.4019,0 16.5,0 C25.5981,0 33,7.6262 33,17 C33,26.3749333 25.5981,34 16.5,34 Z" id="Fill-274"></path>
                    <path d="M24.322327,32.1790419 C23.8925577,31.7336803 23.8925577,31.0108241 24.322327,30.5643205 C24.7520962,30.1189589 25.4478608,30.1189589 25.8765309,30.5643205 L38.2474877,42.7172361 L39.8027908,41.1025147 L27.4318341,28.9495991 C27.0020648,28.5030955 27.0020648,27.7813813 27.4318341,27.3348777 C27.8605042,26.8883741 28.5562688,26.8883741 28.9860381,27.3348777 L41.3569948,39.4877933 C42.2143351,40.3785166 42.2143351,41.8276548 41.3569948,42.7172361 L39.8027908,44.3319576 C39.3741207,44.7773192 38.8113538,45 38.2485869,45 C37.8726761,45 33.2305895,40.7263473 24.322327,32.1790419 Z" id="Fill-275"></path>
                </g>
            </g>
        </g>
    </g>
</svg>