<?xml version="1.0" encoding="UTF-8"?>
<svg width="66px" height="66px" viewBox="0 0 66 66" version="1.1" xmlns="http://www.w3.org/2000/svg" xmlns:xlink="http://www.w3.org/1999/xlink">
    <!-- Generator: Sketch 51.3 (57544) - http://www.bohemiancoding.com/sketch -->
    <title>single-solid</title>
    <desc>Created with Sketch.</desc>
    <defs></defs>
    <g id="main" stroke="none" stroke-width="1" fill="none" fill-rule="evenodd">
        <g id="res" transform="translate(-317.000000, -924.000000)">
            <g id="single-solid" transform="translate(317.000000, 924.000000)" stroke="#FFFFFF" stroke-linecap="round" stroke-linejoin="round" stroke-width="2">
                <g id="Group-4" transform="translate(8.000000, 10.000000)">
                    <path d="M16.0465116,39.4130435 L16.0465116,9.58695652" id="Shape"></path>
                    <ellipse id="Oval" fill="#FFFFFF" transform="translate(9.093024, 41.010872) rotate(-20.840918) translate(-9.093024, -41.010872) " cx="9.09302411" cy="41.0108724" rx="7.19285969" ry="4.95849205"></ellipse>
                    <path d="M43.8604651,30.8913043 L43.8604651,0" id="Shape"></path>
                    <ellipse id="Oval" fill="#FFFFFF" transform="translate(36.906980, 32.489133) rotate(-20.840918) translate(-36.906980, -32.489133) " cx="36.9069801" cy="32.4891329" rx="7.19285969" ry="4.95849205"></ellipse>
                    <g id="Group" transform="translate(16.046512, 0.000000)">
                        <path d="M0,9.58695652 C11.1255096,9.01286783 16.6882807,0.574413791 27.8139535,0" id="Shape"></path>
                        <path d="M27.744186,5 C16.6185133,5.57408869 12.1255096,12.9479754 1,13.5218367" id="Shape"></path>
                    </g>
                </g>
            </g>
            <polygon id="Path-2" fill="#FFFFFF" points="342 944 352 940.5 368 934 369 939 360 940.5 348 947 342 947"></polygon>
        </g>
    </g>
</svg>