<?xml version="1.0" encoding="UTF-8"?>
<svg width="66px" height="66px" viewBox="0 0 66 66" version="1.1" xmlns="http://www.w3.org/2000/svg" xmlns:xlink="http://www.w3.org/1999/xlink">
    <!-- Generator: Sketch 51.3 (57544) - http://www.bohemiancoding.com/sketch -->
    <title>user</title>
    <desc>Created with Sketch.</desc>
    <defs></defs>
    <g id="main" stroke="none" stroke-width="1" fill="none" fill-rule="evenodd">
        <g id="res" transform="translate(-618.000000, -841.000000)" fill="#FFFFFF">
            <g id="Group-6" transform="translate(618.000000, 841.000000)">
                <path d="M9,55.8371237 C9,56.4542479 9.52266667,56.9551023 10.1666667,56.9551023 C10.8106667,56.9551023 11.3333333,56.4542479 11.3333333,55.8371237 C11.3333333,44.1251796 21.278,34.5955298 33.5,34.5955298 C45.722,34.5955298 55.6666667,44.1251796 55.6666667,55.8371237 C55.6666667,56.4542479 56.1893333,56.9551023 56.8333333,56.9551023 C57.4773333,56.9551023 58,56.4542479 58,55.8371237 C58,44.9055287 50.1553333,35.7246882 39.583,33.122034 C43.5986667,31.0403578 46.3333333,26.9686796 46.3333333,22.2977649 C46.3333333,15.5183425 40.5746667,10 33.5,10 C26.4253333,10 20.6666667,15.5183425 20.6666667,22.2977649 C20.6666667,26.9686796 23.4013333,31.0403578 27.417,33.122034 C16.8446667,35.7246882 9,44.9055287 9,55.8371237 L9,55.8371237 Z M23,22.2977649 C23,16.7503549 27.711,12.2359573 33.5,12.2359573 C39.289,12.2359573 44,16.7503549 44,22.2977649 C44,27.8451748 39.289,32.3595725 33.5,32.3595725 C27.711,32.3595725 23,27.8451748 23,22.2977649 L23,22.2977649 Z" id="Shape"></path>
            </g>
        </g>
    </g>
</svg>