<?xml version="1.0" encoding="UTF-8"?>
<svg width="66px" height="66px" viewBox="0 0 66 66" version="1.1" xmlns="http://www.w3.org/2000/svg" xmlns:xlink="http://www.w3.org/1999/xlink">
    <!-- Generator: Sketch 51.3 (57544) - http://www.bohemiancoding.com/sketch -->
    <title>download</title>
    <desc>Created with Sketch.</desc>
    <defs></defs>
    <g id="main" stroke="none" stroke-width="1" fill="none" fill-rule="evenodd">
        <g id="res" transform="translate(-1217.000000, -841.000000)" fill="#FFFFFF">
            <g id="download" transform="translate(1217.000000, 841.000000)">
                <g id="icons" transform="translate(10.000000, 5.000000)">
                    <path d="M22.5,0 C21.9172362,0 21.4442685,0.528 21.4442685,1.17857143 L21.4442685,28.9763571 L14.8016058,21.5584286 C14.3898705,21.0987857 13.7205368,21.0987857 13.3088015,21.5584286 C12.8970662,22.0180714 12.8970662,22.7652857 13.3088015,23.2249286 L21.7525421,32.6511429 C21.8496694,32.7595714 21.9679113,32.8467857 22.0967106,32.9080714 C22.2255098,32.9693571 22.3627549,33 22.5,33 C22.6372451,33 22.7744902,32.9693571 22.9032894,32.9104286 C23.0342001,32.8515 23.1503306,32.7642857 23.2474579,32.6535 L31.6911985,23.2272857 C32.1029338,22.7676429 32.1029338,22.0204286 31.6911985,21.5607857 C31.2794632,21.1011429 30.6101295,21.1011429 30.1983942,21.5607857 L23.5557315,28.9763571 L23.5557315,1.17857143 C23.5557315,0.528 23.0827638,0 22.5,0 L22.5,0 Z" id="Shape" stroke="#FFFFFF" stroke-width="0.5"></path>
                    <path d="M45,10.2647059 C45,9.56658824 44.4070588,9 43.6764706,9 L33.0882353,9 C32.3576471,9 31.7647059,9.56658824 31.7647059,10.2647059 C31.7647059,10.9628235 32.3576471,11.5294118 33.0882353,11.5294118 L42.3529412,11.5294118 L42.3529412,49.4705882 L2.64705882,49.4705882 L2.64705882,11.5294118 L11.9117647,11.5294118 C12.6423529,11.5294118 13.2352941,10.9628235 13.2352941,10.2647059 C13.2352941,9.56658824 12.6423529,9 11.9117647,9 L1.32352941,9 C0.592941176,9 0,9.56658824 0,10.2647059 L0,50.7352941 C0,51.4334118 0.592941176,52 1.32352941,52 L43.6764706,52 C44.4070588,52 45,51.4334118 45,50.7352941 L45,10.2647059 Z" id="Shape"></path>
                </g>
            </g>
        </g>
    </g>
</svg>