<?xml version="1.0" encoding="UTF-8"?>
<svg width="66px" height="66px" viewBox="0 0 66 66" version="1.1" xmlns="http://www.w3.org/2000/svg" xmlns:xlink="http://www.w3.org/1999/xlink">
    <!-- Generator: Sketch 51.3 (57544) - http://www.bohemiancoding.com/sketch -->
    <title>download</title>
    <desc>Created with Sketch.</desc>
    <defs></defs>
    <g id="main" stroke="none" stroke-width="1" fill="none" fill-rule="evenodd">
        <g id="res" transform="translate(-1217.000000, -841.000000)" fill="#FFFFFF">
            <g id="download" transform="translate(1217.000000, 841.000000)">
                <g id="icons" transform="translate(10.000000, 4.000000)">
                    <path d="M23.5,0 C22.9172362,0 22.4442685,0.544 22.4442685,1.21428571 L22.4442685,29.8544286 L15.8016058,22.2117143 C15.3898705,21.7381429 14.7205368,21.7381429 14.3088015,22.2117143 C13.8970662,22.6852857 13.8970662,23.4551429 14.3088015,23.9287143 L22.7525421,33.6405714 C22.8496694,33.7522857 22.9679113,33.8421429 23.0967106,33.9052857 C23.2255098,33.9684286 23.3627549,34 23.5,34 C23.6372451,34 23.7744902,33.9684286 23.9032894,33.9077143 C24.0342001,33.847 24.1503306,33.7571429 24.2474579,33.643 L32.6911985,23.9311429 C33.1029338,23.4575714 33.1029338,22.6877143 32.6911985,22.2141429 C32.2794632,21.7405714 31.6101295,21.7405714 31.1983942,22.2141429 L24.5557315,29.8544286 L24.5557315,1.21428571 C24.5557315,0.544 24.0827638,0 23.5,0 L23.5,0 Z" id="Shape"></path>
                    <path d="M46,11.2647059 C46,10.5665882 45.3938824,10 44.6470588,10 L33.8235294,10 C33.0767059,10 32.4705882,10.5665882 32.4705882,11.2647059 C32.4705882,11.9628235 33.0767059,12.5294118 33.8235294,12.5294118 L43.2941176,12.5294118 L43.2941176,50.4705882 L2.70588235,50.4705882 L2.70588235,12.5294118 L12.1764706,12.5294118 C12.9232941,12.5294118 13.5294118,11.9628235 13.5294118,11.2647059 C13.5294118,10.5665882 12.9232941,10 12.1764706,10 L1.35294118,10 C0.606117647,10 0,10.5665882 0,11.2647059 L0,51.7352941 C0,52.4334118 0.606117647,53 1.35294118,53 L44.6470588,53 C45.3938824,53 46,52.4334118 46,51.7352941 L46,11.2647059 Z" id="Shape"></path>
                </g>
            </g>
        </g>
    </g>
</svg>