<?xml version="1.0" encoding="UTF-8"?>
<svg width="66px" height="66px" viewBox="0 0 66 66" version="1.1" xmlns="http://www.w3.org/2000/svg" xmlns:xlink="http://www.w3.org/1999/xlink">
    <!-- Generator: Sketch 51.3 (57544) - http://www.bohemiancoding.com/sketch -->
    <title>download-folder</title>
    <desc>Created with Sketch.</desc>
    <defs></defs>
    <g id="main" stroke="none" stroke-width="1" fill="none" fill-rule="evenodd">
        <g id="res" transform="translate(-88.000000, -924.000000)" fill="#FFFFFF">
            <g id="download-folder" transform="translate(88.000000, 924.000000)">
                <g transform="translate(10.000000, 15.000000)" id="Shape">
                    <path d="M26.4150532,24.7202222 L22.4287705,28.7756667 L22.4287705,15.9444444 C22.4287705,15.4231111 22.0126813,15 21.5,15 C20.9873187,15 20.5712295,15.4231111 20.5712295,15.9444444 L20.5712295,28.7756667 L16.5849468,24.7221111 C16.2227263,24.3537778 15.6338858,24.3537778 15.2716654,24.7221111 C14.9094449,25.0904444 14.9094449,25.6892222 15.2716654,26.0575556 L20.8424305,31.7223333 C20.9278774,31.8092222 21.0318997,31.8791111 21.1452097,31.9282222 C21.2585197,31.9754444 21.3792598,32 21.5,32 C21.6207402,32 21.7414803,31.9754444 21.8547903,31.9282222 C21.9699578,31.881 22.0721226,31.8111111 22.1575695,31.7223333 L27.7283346,26.0575556 C28.0905551,25.6892222 28.0905551,25.0904444 27.7283346,24.7221111 C27.3661142,24.3537778 26.7791312,24.3518889 26.4150532,24.7202222 L26.4150532,24.7202222 Z"></path>
                    <path d="M0.977272727,37 L42.0227273,37 C42.5621818,37 43,36.552 43,36 L43,10 C43,9.448 42.5621818,9 42.0227273,9 L18.2984545,9 L11.8836364,3.248 C11.7038182,3.088 11.4751364,3 11.2386364,3 L0.977272727,3 C0.437818182,3 0,3.448 0,4 L0,36 C0,36.552 0.437818182,37 0.977272727,37 L0.977272727,37 Z M1.95454545,5 L10.8711818,5 L17.286,10.752 C17.4658182,10.912 17.6945,11 17.931,11 L41.0454545,11 L41.0454545,35 L1.95454545,35 L1.95454545,5 L1.95454545,5 Z"></path>
                    <path d="M45.0465116,5.81818182 L19.9850233,5.81818182 L13.7339535,0.240484848 C13.5585116,0.0853333333 13.3353953,0 13.1046512,0 L5.95348837,0 C5.42716279,0 5,0.434424242 5,0.96969697 C5,1.5049697 5.42716279,1.93939394 5.95348837,1.93939394 L12.7461395,1.93939394 L18.9972093,7.51709091 C19.1726512,7.67224242 19.3957674,7.75757576 19.6265116,7.75757576 L44.0930233,7.75757576 L44.0930233,31.030303 C44.0930233,31.5655758 44.520186,32 45.0465116,32 C45.5728372,32 46,31.5655758 46,31.030303 L46,6.78787879 C46,6.25260606 45.5728372,5.81818182 45.0465116,5.81818182 L45.0465116,5.81818182 Z"></path>
                </g>
            </g>
        </g>
    </g>
</svg>