<?xml version="1.0" encoding="UTF-8"?>
<svg width="66px" height="66px" viewBox="0 0 66 66" version="1.1" xmlns="http://www.w3.org/2000/svg" xmlns:xlink="http://www.w3.org/1999/xlink">
    <!-- Generator: Sketch 51.3 (57544) - http://www.bohemiancoding.com/sketch -->
    <title>expand</title>
    <desc>Created with Sketch.</desc>
    <defs></defs>
    <g id="main" stroke="none" stroke-width="1" fill="none" fill-rule="evenodd">
        <g id="res" transform="translate(-392.000000, -752.000000)" fill="#FFFFFF">
            <g id="expand" transform="translate(425.000000, 785.000000) scale(-1, 1) translate(-425.000000, -785.000000) translate(392.000000, 752.000000)">
                <g id="icons" transform="translate(10.000000, 10.000000)">
                    <path d="M17.535375,17.943375 C17.718375,17.866875 17.865375,17.721375 17.941875,17.536875 C17.979375,17.445375 17.998875,17.347875 17.998875,17.250375 L17.998875,3.750375 C17.998875,3.336375 17.662875,3.000375 17.248875,3.000375 C16.834875,3.000375 16.498875,3.336375 16.498875,3.750375 L16.498875,15.439875 L1.279875,0.219375 C0.987375,-0.073125 0.511875,-0.073125 0.219375,0.219375 C-0.073125,0.511875 -0.073125,0.987375 0.219375,1.279875 L15.438375,16.500375 L3.748875,16.500375 C3.334875,16.500375 2.998875,16.836375 2.998875,17.250375 C2.998875,17.664375 3.334875,18.000375 3.748875,18.000375 L17.248875,18.000375 C17.346375,18.000375 17.443875,17.980875 17.535375,17.943375 L17.535375,17.943375 Z" id="Shape" transform="translate(8.999437, 9.000187) scale(-1, -1) translate(-8.999437, -9.000187) "></path>
                    <path d="M31.5605,29.5 L43.25,29.5 C43.664,29.5 44,29.164 44,28.75 C44,28.336 43.664,28 43.25,28 L29.75,28 C29.6525,28 29.555,28.0195 29.4635,28.057 C29.2805,28.1335 29.1335,28.279 29.057,28.4635 C29.0195,28.555 29,28.6525 29,28.75 L29,42.25 C29,42.664 29.336,43 29.75,43 C30.164,43 30.5,42.664 30.5,42.25 L30.5,30.5605 L45.719,45.7795 C45.866,45.9265 46.058,46 46.25,46 C46.442,46 46.634,45.9265 46.781,45.781 C47.0735,45.4885 47.0735,45.013 46.781,44.7205 L31.5605,29.5 L31.5605,29.5 Z" id="Shape" transform="translate(38.000187, 37.000000) scale(-1, -1) translate(-38.000187, -37.000000) "></path>
                </g>
            </g>
        </g>
    </g>
</svg>