<?xml version="1.0" encoding="UTF-8"?>
<svg width="66px" height="66px" viewBox="0 0 66 66" version="1.1" xmlns="http://www.w3.org/2000/svg" xmlns:xlink="http://www.w3.org/1999/xlink">
    <!-- Generator: Sketch 51.3 (57544) - http://www.bohemiancoding.com/sketch -->
    <title>loading</title>
    <desc>Created with Sketch.</desc>
    <defs></defs>
    <g id="main" stroke="none" stroke-width="1" fill="none" fill-rule="evenodd">
        <g id="res" transform="translate(-1078.000000, -752.000000)" fill="#FFFFFF" fill-rule="nonzero">
            <g id="loading" transform="translate(1078.000000, 752.000000)">
                <path d="M18.1232752,53.9067073 C12.7228438,49.8244045 9.21939822,43.8603483 8.26099011,37.1184084 C7.302582,30.374655 9.00280337,23.6582344 13.0477682,18.206053 C21.4010772,6.94830679 37.2703234,4.65299916 48.4213318,13.0781085 C53.0961865,16.6120713 56.4317471,21.7072423 57.8161571,27.4235545 C58.0525824,28.4017708 57.4587596,29.3873061 56.4913026,29.6259176 C55.5238457,29.8572749 54.5455429,29.2670289 54.3091176,28.2888125 C53.1250658,23.3904118 50.2660139,19.0238996 46.2571803,15.9944925 C36.7035188,8.77163781 23.0995658,10.7408949 15.9374964,20.390151 C12.470182,25.0626999 11.0135736,30.8191045 11.836634,36.59915 C12.6578975,42.3792603 15.661346,47.4889396 20.2910206,50.9865019 C29.8536668,58.2184244 43.4558228,56.2456049 50.6142984,46.5963488 C52.4878598,44.0697487 53.7729892,41.2388606 54.4299615,38.1803072 C54.6429625,37.1965854 55.6086225,36.5718172 56.5760794,36.7849094 C57.5507883,36.9980664 58.1698324,37.9689638 57.9586926,38.950872 C57.188,42.5249272 55.6898696,45.8294111 53.5040266,48.7804469 C49.4591259,54.2308148 43.5497127,57.7684695 36.8659489,58.7339262 C35.6476269,58.9124314 34.4310378,58.9998705 33.2217647,58.9998705 C27.7978448,59 22.54181,57.2457782 18.1232752,53.9067073 Z" id="Shape"></path>
            </g>
        </g>
    </g>
</svg>