<?xml version="1.0" encoding="UTF-8"?>
<svg width="66px" height="66px" viewBox="0 0 66 66" version="1.1" xmlns="http://www.w3.org/2000/svg" xmlns:xlink="http://www.w3.org/1999/xlink">
    <!-- Generator: Sketch 51.3 (57544) - http://www.bohemiancoding.com/sketch -->
    <title>loading</title>
    <desc>Created with Sketch.</desc>
    <defs></defs>
    <g id="main" stroke="none" stroke-width="1" fill="none" fill-rule="evenodd">
        <g id="res" transform="translate(-1217.000000, -841.000000)" fill="#FFFFFF" fill-rule="nonzero">
            <g id="loading" transform="translate(1217.000000, 841.000000)">
                <g transform="translate(10.000000, 9.000000)" id="Shape">
                    <path d="M23.7084588,48 C18.6099741,48 13.6693014,46.3489677 9.51587871,43.2063128 C4.43947321,39.3641454 1.14623432,33.7509161 0.245330701,27.4055609 C-0.65557292,21.0584988 0.942635172,14.7371618 4.7449021,9.6056969 C12.5970125,-0.989828906 27.514104,-3.15011843 37.9960519,4.77939624 C42.3904153,8.1054789 45.5258422,12.9009339 46.8271877,18.2809924 C47.0494275,19.2016666 46.491234,20.1292293 45.5818245,20.3538048 C44.6724149,20.5715528 43.7528103,20.0160272 43.5305706,19.0953529 C42.4175619,14.4850934 39.7300531,10.3754349 35.9617495,7.52422825 C26.9813076,0.726247353 14.1935918,2.5796658 7.46124657,11.6613186 C4.20197103,16.0590117 2.8327592,21.4768042 3.60643598,26.916847 C4.37842363,32.3569508 7.20166519,37.1660608 11.5535593,40.4578842 C20.5424468,47.2643994 33.3284735,45.4076282 40.0574405,36.3259753 C41.8185882,33.9479988 43.0266099,31.2836336 43.6441638,28.404995 C43.8443847,27.4791392 44.7521051,26.8911221 45.6615147,27.0916794 C46.577741,27.2922978 47.1596425,28.2060836 46.961171,29.1302325 C46.23672,32.4940492 44.8284774,35.6041516 42.773785,38.3815971 C38.9715784,43.5113551 33.4167299,46.8409124 27.1339919,47.7495776 C25.9887693,47.9175825 24.8451755,47.9998781 23.7084588,47.9998781 L23.7084588,48 Z"></path>
                </g>
            </g>
        </g>
    </g>
</svg>