<?xml version="1.0" encoding="UTF-8"?>
<svg width="95px" height="66px" viewBox="0 0 95 66" version="1.1" xmlns="http://www.w3.org/2000/svg" xmlns:xlink="http://www.w3.org/1999/xlink">
    <!-- Generator: Sketch 51.3 (57544) - http://www.bohemiancoding.com/sketch -->
    <title>random</title>
    <desc>Created with Sketch.</desc>
    <defs></defs>
    <g id="main" stroke="none" stroke-width="1" fill="none" fill-rule="evenodd" stroke-linecap="round" stroke-linejoin="round">
        <g id="res" transform="translate(-1216.000000, -841.000000)" stroke="#FFFFFF" stroke-width="2.5">
            <g id="random" transform="translate(1216.000000, 841.000000)">
                <path d="M41.164105,46.4601562 C34.2794333,52.9243469 22.8266882,52.4853659 16.5624497,45.1432134 C11.8125168,39.5759351 11.8125168,31.4240649 16.5624497,25.8567866 C18.6505291,23.4094034 21.3151092,21.7290381 24.1948351,20.8156908 C31.5538693,18.481669 39.6173697,21.8642312 43.3227892,28.2740524 L51.677212,42.7259476 C55.3826313,49.1357702 63.446129,52.5183324 70.8051689,50.1843106 C73.6848916,49.2709633 76.3494724,47.5905994 78.4375499,45.1432134 C83.1874834,39.5759351 83.1874834,31.4240649 78.4375499,25.8567866 C72.1733115,18.5146341 60.7205664,18.0756531 53.8358976,24.5398438" id="Shape"></path>
                <polyline id="Shape" points="56.1428571 15 53 25.1111111 64 28"></polyline>
            </g>
        </g>
    </g>
</svg>