<?xml version="1.0" encoding="UTF-8"?>
<svg width="66px" height="66px" viewBox="0 0 66 66" version="1.1" xmlns="http://www.w3.org/2000/svg" xmlns:xlink="http://www.w3.org/1999/xlink">
    <!-- Generator: Sketch 51.3 (57544) - http://www.bohemiancoding.com/sketch -->
    <title>setting</title>
    <desc>Created with Sketch.</desc>
    <defs></defs>
    <g id="main" stroke="none" stroke-width="1" fill="none" fill-rule="evenodd">
        <g id="res" transform="translate(-12.000000, -924.000000)" fill="#FFFFFF">
            <g id="setting" transform="translate(12.000000, 924.000000)">
                <g transform="translate(12.000000, 13.000000)" id="Shape">
                    <path d="M42.1041667,5.34782609 L17.8252917,5.34782609 C17.3863333,2.33165217 14.7955833,0 11.6458333,0 C8.49608333,0 5.90533333,2.33165217 5.466375,5.34782609 L0.895833333,5.34782609 C0.401333333,5.34782609 0,5.74713043 0,6.23913043 C0,6.73113043 0.401333333,7.13043478 0.895833333,7.13043478 L5.466375,7.13043478 C5.90533333,10.1466087 8.49608333,12.4782609 11.6458333,12.4782609 C14.7955833,12.4782609 17.3863333,10.1466087 17.8252917,7.13043478 L42.1041667,7.13043478 C42.5986667,7.13043478 43,6.73113043 43,6.23913043 C43,5.74713043 42.5986667,5.34782609 42.1041667,5.34782609 L42.1041667,5.34782609 Z M11.6458333,10.6956522 C9.17691667,10.6956522 7.16666667,8.69556522 7.16666667,6.23913043 C7.16666667,3.78269565 9.17691667,1.7826087 11.6458333,1.7826087 C14.11475,1.7826087 16.125,3.78269565 16.125,6.23913043 C16.125,8.69556522 14.11475,10.6956522 11.6458333,10.6956522 L11.6458333,10.6956522 Z"></path>
                    <path d="M42.1041667,19.6086957 L33.9502917,19.6086957 C33.5113333,16.5925217 30.9205833,14.2608696 27.7708333,14.2608696 C24.6210833,14.2608696 22.0303333,16.5925217 21.591375,19.6086957 L0.895833333,19.6086957 C0.401333333,19.6086957 0,20.008 0,20.5 C0,20.992 0.401333333,21.3913043 0.895833333,21.3913043 L21.591375,21.3913043 C22.0303333,24.4074783 24.6210833,26.7391304 27.7708333,26.7391304 C30.9205833,26.7391304 33.5113333,24.4074783 33.9502917,21.3913043 L42.1041667,21.3913043 C42.5986667,21.3913043 43,20.992 43,20.5 C43,20.008 42.5986667,19.6086957 42.1041667,19.6086957 L42.1041667,19.6086957 Z M27.7708333,24.9565217 C25.3019167,24.9565217 23.2916667,22.9564348 23.2916667,20.5 C23.2916667,18.0435652 25.3019167,16.0434783 27.7708333,16.0434783 C30.23975,16.0434783 32.25,18.0435652 32.25,20.5 C32.25,22.9564348 30.23975,24.9565217 27.7708333,24.9565217 L27.7708333,24.9565217 Z"></path>
                    <path d="M42.1041667,33.8695652 L23.2002917,33.8695652 C22.7613333,30.8533913 20.1705833,28.5217391 17.0208333,28.5217391 C13.8710833,28.5217391 11.2803333,30.8533913 10.841375,33.8695652 L0.895833333,33.8695652 C0.401333333,33.8695652 0,34.2688696 0,34.7608696 C0,35.2528696 0.401333333,35.6521739 0.895833333,35.6521739 L10.841375,35.6521739 C11.2803333,38.6683478 13.8710833,41 17.0208333,41 C20.1705833,41 22.7613333,38.6683478 23.2002917,35.6521739 L42.1041667,35.6521739 C42.5986667,35.6521739 43,35.2528696 43,34.7608696 C43,34.2688696 42.5986667,33.8695652 42.1041667,33.8695652 L42.1041667,33.8695652 Z M17.0208333,39.2173913 C14.5519167,39.2173913 12.5416667,37.2173043 12.5416667,34.7608696 C12.5416667,32.3044348 14.5519167,30.3043478 17.0208333,30.3043478 C19.48975,30.3043478 21.5,32.3044348 21.5,34.7608696 C21.5,37.2173043 19.48975,39.2173913 17.0208333,39.2173913 L17.0208333,39.2173913 Z"></path>
                </g>
            </g>
        </g>
    </g>
</svg>