<?xml version="1.0" encoding="UTF-8"?>
<svg width="66px" height="66px" viewBox="0 0 66 66" version="1.1" xmlns="http://www.w3.org/2000/svg" xmlns:xlink="http://www.w3.org/1999/xlink">
    <!-- Generator: Sketch 51.3 (57544) - http://www.bohemiancoding.com/sketch -->
    <title>trash</title>
    <desc>Created with Sketch.</desc>
    <defs></defs>
    <g id="main" stroke="none" stroke-width="1" fill="none" fill-rule="evenodd">
        <g id="res" transform="translate(-1363.000000, -752.000000)" fill="#FFFFFF">
            <g id="trash" transform="translate(1363.000000, 752.000000)">
                <g transform="translate(15.000000, 13.000000)" id="Shape">
                    <path d="M13.4545455,5 L0.840909091,5 C0.376727273,5 0,5.37333333 0,5.83333333 L0,9.16666667 C0,9.62666667 0.376727273,10 0.840909091,10 L1.79113636,10 L5.95027273,39.2816667 C6.00913636,39.6933333 6.364,40 6.78277273,40 L30.2172273,40 C30.636,40 30.9908636,39.6933333 31.0497273,39.2816667 L35.2088636,10 L36.1590909,10 C36.6232727,10 37,9.62666667 37,9.16666667 L37,5.83333333 C37,5.37333333 36.6232727,5 36.1590909,5 L23.5454545,5 C23.5454545,2.24333333 21.2817273,0 18.5,0 C15.7182727,0 13.4545455,2.24333333 13.4545455,5 L13.4545455,5 Z M29.4856364,38.3333333 L7.51436364,38.3333333 L3.48977273,10 L33.5085455,10 L29.4856364,38.3333333 L29.4856364,38.3333333 Z M35.3181818,6.66666667 L35.3181818,8.33333333 L1.68181818,8.33333333 L1.68181818,6.66666667 L35.3181818,6.66666667 L35.3181818,6.66666667 Z M18.5,1.66666667 C20.3550455,1.66666667 21.8636364,3.16166667 21.8636364,5 L15.1363636,5 C15.1363636,3.16166667 16.6449545,1.66666667 18.5,1.66666667 L18.5,1.66666667 Z"></path>
                    <path d="M22.6339091,34.9966667 C22.6591364,34.9983333 22.6826818,35 22.7045455,35 C23.1367727,35 23.5050909,34.6716667 23.5420909,34.2366667 L25.2239091,14.2366667 C25.2625909,13.7783333 24.9195,13.3733333 24.4553182,13.3366667 C23.9827273,13.3066667 23.5858182,13.64 23.5471364,14.0966667 L21.8653182,34.0966667 C21.8283182,34.555 22.1714091,34.96 22.6339091,34.9966667 L22.6339091,34.9966667 Z"></path>
                    <path d="M14.2954545,35 C14.319,35 14.3425455,34.9983333 14.3660909,34.9966667 C14.8285909,34.96 15.1716818,34.555 15.1346818,34.0966667 L13.4528636,14.0966667 C13.4141818,13.64 13.0139091,13.305 12.5446818,13.3366667 C12.0821818,13.3733333 11.7390909,13.7783333 11.7760909,14.2366667 L13.4579091,34.2366667 C13.4932273,34.6716667 13.8615455,35 14.2954545,35 L14.2954545,35 Z"></path>
                </g>
            </g>
        </g>
    </g>
</svg>