<?xml version="1.0" encoding="UTF-8"?>
<svg width="66px" height="66px" viewBox="0 0 66 66" version="1.1" xmlns="http://www.w3.org/2000/svg" xmlns:xlink="http://www.w3.org/1999/xlink">
    <!-- Generator: Sketch 51.3 (57544) - http://www.bohemiancoding.com/sketch -->
    <title>vol-solid</title>
    <desc>Created with Sketch.</desc>
    <defs></defs>
    <g id="main" stroke="none" stroke-width="1" fill="none" fill-rule="evenodd">
        <g id="res" transform="translate(-468.000000, -924.000000)" fill="#FFFFFF">
            <g id="vols-solid" transform="translate(468.000000, 924.000000)">
                <g transform="translate(9.000000, 9.000000)">
                    <path d="M24,46 C11.8497355,46 2,36.1502645 2,24 C2,11.8497355 11.8497355,2 24,2 C36.1502645,2 46,11.8497355 46,24 C46,36.1502645 36.1502645,46 24,46 Z M29.6196471,5.09201508 C29.0319169,4.84246298 28.3438994,5.11766997 28.0920151,5.71006467 C27.842463,6.30245936 28.11767,6.98814456 28.7100647,7.24002892 C31.2079179,8.29887613 33.4538868,9.81484681 35.3850002,11.743628 C37.3137813,13.6724091 38.829752,15.918378 39.8885992,18.4185635 C40.0775125,18.8616934 40.5089811,19.1299036 40.96144,19.1299036 C41.1130371,19.1299036 41.2669664,19.0995841 41.4162312,19.0366131 C42.0086259,18.7847287 42.2861652,18.1013758 42.0342808,17.5089811 C40.8564882,14.7312563 39.1725946,12.2357354 37.0315776,10.0947183 C34.8905605,7.95136901 32.3973718,6.26980768 29.6196471,5.09201508 Z M18.9137974,40.2646957 C16.4159442,39.2058484 14.1699753,37.6898778 12.2388619,35.7610966 C10.3077485,33.8323155 8.79177783,31.5840143 7.73526289,29.0861611 C7.48337853,28.4937664 6.79769333,28.2185594 6.20529863,28.4681115 C5.61290394,28.7199959 5.33536469,29.4033488 5.58724905,29.9957435 C6.76270939,32.771136 8.44660297,35.2666569 10.5899523,37.4100063 C12.7333016,39.5533556 15.2264903,41.2372492 18.004215,42.4127095 C18.1511476,42.4756806 18.3050769,42.506 18.4590062,42.506 C18.9114652,42.506 19.3429338,42.2401221 19.531847,41.7946599 C19.7837314,41.199933 19.5061921,40.51658 18.9137974,40.2646957 Z M24,16 C19.588,16 16,19.588 16,24 C16,28.412 19.588,32 24,32 C28.412,32 32,28.412 32,24 C32,19.588 28.412,16 24,16 Z M24,20 C26.206,20 28,21.794 28,24 C28,26.206 26.206,28 24,28 C21.794,28 20,26.206 20,24 C20,21.794 21.794,20 24,20 Z M24,26 C25.102,26 26,25.102 26,24 C26,22.898 25.102,22 24,22 C22.898,22 22,22.898 22,24 C22,25.102 22.898,26 24,26 Z" id="Combined-Shape"></path>
                    <path d="M24,0 C10.766,0 0,10.766 0,24 C0,37.234 10.766,48 24,48 C37.234,48 48,37.234 48,24 C48,10.766 37.234,0 24,0 L24,0 Z M24,46 C11.87,46 2,36.13 2,24 C2,11.87 11.87,2 24,2 C36.13,2 46,11.87 46,24 C46,36.13 36.13,46 24,46 L24,46 Z" id="Shape"></path>
                </g>
            </g>
        </g>
    </g>
</svg>