<?xml version="1.0" encoding="UTF-8"?>
<svg width="66px" height="66px" viewBox="0 0 66 66" version="1.1" xmlns="http://www.w3.org/2000/svg" xmlns:xlink="http://www.w3.org/1999/xlink">
    <!-- Generator: Sketch 51.3 (57544) - http://www.bohemiancoding.com/sketch -->
    <title>website</title>
    <desc>Created with Sketch.</desc>
    <defs></defs>
    <g id="main" stroke="none" stroke-width="1" fill="none" fill-rule="evenodd">
        <g id="res" transform="translate(-1217.000000, -752.000000)" stroke="#FFFFFF" stroke-width="2">
            <g id="website" transform="translate(1217.000000, 752.000000)">
                <g transform="translate(13.000000, 13.000000)">
                    <circle id="Oval" cx="19.5" cy="19.5" r="19.5"></circle>
                    <path d="M6.3570846,7.22896586 C6.3570846,7.22896586 3.74031311,13.2169084 6.90804017,12.1023021 C9.24879897,11.27888 9.45527358,10.3178653 9.45527358,10.3178653 L10.8321276,7.91586202 C10.8321276,7.91586202 11.0386022,11.27888 11.3135451,11.758854 C11.5895578,12.238828 12.6903991,13.6126203 13.1033483,11.690591 C13.8629181,8.15691564 13.9912961,7.16070289 15.298612,7.16070289 C16.6069978,7.16070289 19.2997263,6.13035866 19.5757389,9.28752111 C19.8506818,12.4446836 19.3007961,10.5919838 17.5794611,11.4164725 C15.8570563,12.2398946 15.4441071,15.1229386 17.0285055,15.4653201 C18.0020387,15.6765086 19.7297925,16.3026081 20.9162192,16.7537836 C24.7611402,18.2150379 24.8766804,22.4409425 24.8766804,26.1730071 C24.8766804,26.1730071 24.9462185,30.4981064 26.5295471,29.4688288 C28.1128757,28.4384845 32.4499123,21.711382 31.5544758,19.1717861 C30.6601091,16.6332568 30.5916408,16.3580717 32.2434377,15.4653201 C33.8952346,14.573635 35.065614,13.4750278 34.9971457,12.2398946 M3,23.3411604 C3,23.3411604 3.48141749,17.8939886 4.58332862,18.7643415 C5.68523975,19.6346944 6.16665724,19.6346944 7.13056203,20.595709 C8.09553663,21.5567237 12.2260987,22.1060273 10.8492447,23.3411604 C9.47239064,24.5773602 8.94283141,24.5058974 7.06316358,30" id="Shape"></path>
                </g>
            </g>
        </g>
    </g>
</svg>