<?xml version="1.0" encoding="UTF-8"?>
<svg width="22px" height="22px" viewBox="0 0 22 22" version="1.1" xmlns="http://www.w3.org/2000/svg" xmlns:xlink="http://www.w3.org/1999/xlink">
    <!-- Generator: Sketch 39.1 (31720) - http://www.bohemiancoding.com/sketch -->
    <title>cd</title>
    <desc>Created with Sketch.</desc>
    <defs></defs>
    <g id="Page-1" stroke="none" stroke-width="1" fill="none" fill-rule="evenodd">
        <g id="680x680" transform="translate(-609.000000, -449.000000)" fill="#231F1F">
            <g id="Row-6" transform="translate(50.000000, 447.000000)">
                <path d="M569.999532,2 C563.925178,2 559,6.92517759 559,13.0004679 C559,19.0757582 563.925178,24 569.999532,24 C576.074822,24 581,19.0757582 581,13.0004679 C581,6.92517759 576.074822,2 569.999532,2 Z M570,20 C566.133664,20 563,16.8654934 563,13.0005427 C563,9.13450655 566.133664,6 570,6 C573.866336,6 577,9.13450655 577,13.0005427 C577,16.8654934 573.866336,20 570,20 Z M570,8 C567.238674,8 565,10.2394352 565,13.0004902 C565,15.7615452 567.238674,18 570,18 C572.761326,18 575,15.7615452 575,13.0004902 C575,10.2394352 572.761326,8 570,8 Z M568,13.0004447 C568,11.8957082 568.895907,11 570,11 C571.104982,11 572,11.8957082 572,13.0004447 C572,14.1051812 571.104982,15 570,15 C568.895907,15 568,14.1051812 568,13.0004447 Z" id="cd"></path>
            </g>
        </g>
    </g>
</svg>