<?xml version="1.0" encoding="UTF-8"?>
<svg width="20px" height="20px" viewBox="0 0 20 20" version="1.1" xmlns="http://www.w3.org/2000/svg" xmlns:xlink="http://www.w3.org/1999/xlink">
    <!-- Generator: Sketch 39.1 (31720) - http://www.bohemiancoding.com/sketch -->
    <title>link</title>
    <desc>Created with Sketch.</desc>
    <defs></defs>
    <g id="Page-1" stroke="none" stroke-width="1" fill="none" fill-rule="evenodd">
        <g id="680x680" transform="translate(-609.000000, -451.000000)" fill="#231F1F">
            <g id="Row-6" transform="translate(59.000000, 449.000000)">
                <path d="M565.57,11.523 L568.71,8.384 C570.114,6.98 570.114,4.704 568.71,3.3 L568.463,3.053 C567.059,1.649 564.783,1.649 563.379,3.053 L560.239,6.192 C559.214,7.218 558.97,8.722 559.495,9.982 C559.624,10.294 559.534,10.655 559.295,10.894 L558.894,11.294 C558.655,11.533 558.295,11.624 557.983,11.494 C556.722,10.969 555.218,11.213 554.193,12.239 L551.053,15.378 C549.649,16.782 549.649,19.058 551.053,20.462 L551.3,20.709 C552.704,22.113 554.98,22.113 556.384,20.709 L559.524,17.57 C560.55,16.543 560.794,15.037 560.267,13.775 C560.136,13.463 560.227,13.102 560.466,12.863 L560.863,12.466 C561.103,12.227 561.464,12.136 561.776,12.267 C563.037,12.793 564.543,12.55 565.57,11.523 L565.57,11.523 Z M563.474,10.149 C563.383,10.058 563.351,9.912 563.405,9.796 C563.594,9.389 563.534,8.898 563.198,8.561 C562.861,8.225 562.37,8.165 561.963,8.354 C561.846,8.408 561.704,8.379 561.613,8.288 C561.493,8.167 561.493,7.971 561.613,7.851 L564.842,4.622 C565.428,4.036 566.378,4.036 566.963,4.622 L567.14,4.799 C567.726,5.384 567.726,6.334 567.14,6.92 L563.911,10.149 C563.791,10.269 563.595,10.269 563.474,10.149 L563.474,10.149 Z M556.284,13.609 C556.376,13.701 556.4,13.844 556.343,13.962 C556.143,14.372 556.201,14.874 556.543,15.216 C556.885,15.557 557.386,15.616 557.797,15.416 C557.914,15.359 558.054,15.379 558.146,15.471 C558.264,15.59 558.272,15.789 558.154,15.907 L554.921,19.14 C554.335,19.726 553.385,19.726 552.799,19.14 L552.623,18.963 C552.037,18.377 552.037,17.428 552.623,16.842 L555.856,13.609 C555.974,13.491 556.165,13.491 556.284,13.609 L556.284,13.609 Z" id="link"></path>
            </g>
        </g>
    </g>
</svg>