<?xml version="1.0" encoding="UTF-8"?>
<svg width="21px" height="20px" viewBox="0 0 21 20" version="1.1" xmlns="http://www.w3.org/2000/svg" xmlns:xlink="http://www.w3.org/1999/xlink">
    <!-- Generator: Sketch 39.1 (31720) - http://www.bohemiancoding.com/sketch -->
    <title>star5</title>
    <desc>Created with Sketch.</desc>
    <defs></defs>
    <g id="Page-1" stroke="none" stroke-width="1" fill="none" fill-rule="evenodd">
        <g id="680x680" transform="translate(-611.000000, -371.000000)" fill="#231F1F">
            <g id="Row-5" transform="translate(49.000000, 369.000000)">
                <path d="M573.217143,2.67125 L574.888143,7.81625 C575.073143,8.38625 575.604143,8.77125 576.202143,8.77125 L581.612143,8.77125 C582.553143,8.77125 582.945143,9.97525 582.183143,10.52825 L577.806143,13.70825 C577.322143,14.06025 577.120143,14.68425 577.305143,15.25325 L578.976143,20.39825 C579.267143,21.29325 578.243143,22.03725 577.482143,21.48425 L573.105143,18.30425 C572.621143,17.95225 571.965143,17.95225 571.481143,18.30425 L567.104143,21.48425 C566.343143,22.03725 565.318143,21.29325 565.609143,20.39825 L567.281143,15.25325 C567.466143,14.68425 567.263143,14.06025 566.779143,13.70825 L562.402143,10.52825 C561.641143,9.97525 562.032143,8.77125 562.973143,8.77125 L568.383143,8.77125 C568.982143,8.77125 569.512143,8.38625 569.697143,7.81625 L571.369143,2.67125 C571.660143,1.77625 572.926143,1.77625 573.217143,2.67125" id="star5"></path>
            </g>
        </g>
    </g>
</svg>