<?xml version="1.0" encoding="UTF-8"?>
<svg width="152px" height="151px" viewBox="0 0 152 151" version="1.1" xmlns="http://www.w3.org/2000/svg" xmlns:xlink="http://www.w3.org/1999/xlink">
    <!-- Generator: Sketch 39.1 (31720) - http://www.bohemiancoding.com/sketch -->
    <title>cd</title>
    <desc>Created with Sketch.</desc>
    <defs></defs>
    <g id="Welcome" stroke="none" stroke-width="1" fill="none" fill-rule="evenodd">
        <g id="Luoo.qy-0.0.3" transform="translate(-43.000000, -359.000000)" fill="#231F1F">
            <g id="nav">
                <g id="button" transform="translate(42.000000, 359.000000)">
                    <path d="M76.9033798,0 C35.0555559,0 1,33.8670284 1,75.4969195 C1,117.132972 35.0555559,151 76.9033798,151 C118.763592,151 152.812954,117.132972 152.812954,75.4969195 C152.812954,33.8670284 118.763592,0 76.9033798,0 L76.9033798,0 Z M76.9033798,144.838998 C38.4685445,144.838998 7.19417168,113.732098 7.19417168,75.4969195 C7.19417168,37.2617406 38.4685445,6.16100208 76.9033798,6.16100208 C115.344409,6.16100208 146.618782,37.2617406 146.618782,75.4969195 C146.618782,113.732098 115.344409,144.838998 76.9033798,144.838998 Z M76.9033798,41.0076299 C57.7819718,41.0076299 42.2284067,56.4779061 42.2284067,75.4969195 C42.2284067,94.5159329 57.7819718,109.99237 76.9033798,109.99237 C96.0309819,109.99237 111.590741,94.5159329 111.590741,75.4969195 C111.590741,56.4779061 96.0309819,41.0076299 76.9033798,41.0076299 Z M76.9033798,103.831368 C61.1949604,103.831368 48.4225784,91.1273818 48.4225784,75.4969195 C48.4225784,59.8726182 61.1949604,47.1686319 76.9033798,47.1686319 C92.6117992,47.1686319 105.39657,59.8726182 105.39657,75.4969195 C105.39657,91.1273818 92.6117992,103.831368 76.9033798,103.831368 Z M76.9033798,58.5664858 C67.5192097,58.5664858 59.881796,66.1630013 59.881796,75.4969195 C59.881796,84.8369987 67.5192097,92.4335142 76.9033798,92.4335142 C86.2937441,92.4335142 93.9311577,84.8369987 93.9311577,75.4969195 C93.9311577,66.1630013 86.2937441,58.5664858 76.9033798,58.5664858 Z M76.9033798,86.2663511 C70.9321983,86.2663511 66.0759677,81.4361255 66.0759677,75.4969195 C66.0759677,69.5638745 70.9321983,64.7274879 76.9033798,64.7274879 C82.8807555,64.7274879 87.7369861,69.5638745 87.7369861,75.4969195 C87.7369861,81.4361255 82.8807555,86.2663511 76.9033798,86.2663511 L76.9033798,86.2663511 Z" id="cd"></path>
                </g>
            </g>
        </g>
    </g>
</svg>