<?xml version="1.0" encoding="UTF-8"?>
<svg width="40px" height="40px" viewBox="0 0 40 40" version="1.1" xmlns="http://www.w3.org/2000/svg" xmlns:xlink="http://www.w3.org/1999/xlink">
    <!-- Generator: Sketch 39.1 (31720) - http://www.bohemiancoding.com/sketch -->
    <title>vol</title>
    <desc>Created with Sketch.</desc>
    <defs></defs>
    <g id="Page-1" stroke="none" stroke-width="1" fill="none" fill-rule="evenodd">
        <g id="track" transform="translate(-74.000000, -38.000000)" fill="#FFFFFF">
            <g id="head" transform="translate(70.000000, 38.000000)">
                <g id="vol">
                    <path d="M23.999184,0 C12.9730303,0 4,8.9233567 4,19.892089 C4,30.8624445 12.9730303,39.7858012 23.999184,39.7858012 C35.0286017,39.7858012 44,30.8624445 44,19.892089 C44,8.9233567 35.0286017,0 23.999184,0 L23.999184,0 Z M23.999184,38.1624873 C13.8722918,38.1624873 5.63205353,29.9663752 5.63205353,19.892089 C5.63205353,9.81780267 13.8722918,1.62331393 23.999184,1.62331393 C34.1277082,1.62331393 42.3679465,9.81780267 42.3679465,19.892089 C42.3679465,29.9663752 34.1277082,38.1624873 23.999184,38.1624873 Z M23.999184,10.8047775 C18.9610347,10.8047775 14.8629483,14.8809188 14.8629483,19.892089 C14.8629483,24.9032591 18.9610347,28.9810237 23.999184,28.9810237 C29.0389653,28.9810237 33.1386837,24.9032591 33.1386837,19.892089 C33.1386837,14.8809188 29.0389653,10.8047775 23.999184,10.8047775 Z M23.999184,27.3577097 C19.8602962,27.3577097 16.4950018,24.0104364 16.4950018,19.892089 C16.4950018,15.7753648 19.8602962,12.4280915 23.999184,12.4280915 C28.1380717,12.4280915 31.5066302,15.7753648 31.5066302,19.892089 C31.5066302,24.0104364 28.1380717,27.3577097 23.999184,27.3577097 Z M23.999184,15.4312223 C21.5266229,15.4312223 19.5143009,17.4327683 19.5143009,19.892089 C19.5143009,22.3530329 21.5266229,24.354579 23.999184,24.354579 C26.4733771,24.354579 28.4856991,22.3530329 28.4856991,19.892089 C28.4856991,17.4327683 26.4733771,15.4312223 23.999184,15.4312223 Z M23.999184,22.7296417 C22.4258844,22.7296417 21.1463544,21.4569636 21.1463544,19.892089 C21.1463544,18.3288376 22.4258844,17.0545362 23.999184,17.0545362 C25.5741156,17.0545362 26.8536456,18.3288376 26.8536456,19.892089 C26.8536456,21.4569636 25.5741156,22.7296417 23.999184,22.7296417 L23.999184,22.7296417 Z"></path>
                </g>
            </g>
        </g>
    </g>
</svg>