<svg width="40" height="40" viewBox="0 0 40 40" xmlns="http://www.w3.org/2000/svg"><title>vol</title><g fill="none" fill-rule="evenodd"><g transform="translate(-74 -38)" fill="#FFF"><g transform="translate(70 38)"><path d="M24 0C12.972 0 4 8.923 4 19.892c0 10.97 8.973 19.894 20 19.894 11.029 0 20-8.924 20-19.894C44 8.923 35.029 0 24 0zm0 38.162c-10.128 0-18.368-8.196-18.368-18.27S13.872 1.623 24 1.623c10.129 0 18.369 8.195 18.369 18.27 0 10.073-8.24 18.27-18.369 18.27zm0-27.357c-5.039 0-9.137 4.076-9.137 9.087s4.098 9.089 9.136 9.089c5.04 0 9.14-4.078 9.14-9.089s-4.1-9.087-9.14-9.087zm0 16.553c-4.14 0-7.505-3.348-7.505-7.466 0-4.117 3.365-7.464 7.504-7.464 4.14 0 7.508 3.347 7.508 7.464 0 4.118-3.369 7.466-7.508 7.466zm0-11.927c-2.473 0-4.486 2.002-4.486 4.461 0 2.461 2.013 4.463 4.485 4.463 2.474 0 4.487-2.002 4.487-4.463 0-2.46-2.013-4.46-4.487-4.46zm0 7.299a2.848 2.848 0 0 1-2.854-2.838A2.85 2.85 0 0 1 24 17.055a2.85 2.85 0 0 1 2.855 2.837 2.848 2.848 0 0 1-2.855 2.838z"/></g></g></g></svg>