<?xml version="1.0" encoding="UTF-8"?>
<svg width="40px" height="40px" viewBox="0 0 40 40" version="1.1" xmlns="http://www.w3.org/2000/svg" xmlns:xlink="http://www.w3.org/1999/xlink">
    <!-- Generator: Sketch 39.1 (31720) - http://www.bohemiancoding.com/sketch -->
    <title>arrow-circle-left</title>
    <desc>Created with Sketch.</desc>
    <defs></defs>
    <g id="Page-1" stroke="none" stroke-width="1" fill="none" fill-rule="evenodd">
        <g id="vol-player" transform="translate(-79.000000, -37.000000)" fill="#FFFFFF">
            <g id="head" transform="translate(74.000000, 37.000000)">
                <g id="back">
                    <path d="M25,40 C13.9715965,40 5,31.0288429 5,20.0009794 C5,8.97115714 13.9715965,0 25,0 C36.0284035,0 45,8.97115714 45,20.0009794 C45,31.0288429 36.0284035,40 25,40 L25,40 Z M25,1.95876793 C15.0528893,1.95876793 6.95886386,10.0504383 6.95886386,20.0009794 C6.95886386,29.947603 15.0528893,38.0412321 25,38.0412321 C34.9471107,38.0412321 43.0411361,29.947603 43.0411361,20.0009794 C43.0411361,10.0504383 34.9471107,1.95876793 25,1.95876793 Z M26.3907094,30 C25.1673269,30 24.1705678,28.8842128 24.1705678,27.5137585 L24.1705678,23.8987806 C24.1705678,23.7196504 24.0399712,23.5707349 23.8805666,23.5707349 L18.1439203,23.5707349 C16.4096747,23.5707349 15,21.9866192 15,20.0356102 C15,18.037121 16.4096747,16.4508471 18.1439203,16.4508471 L23.8805666,16.4508471 C24.0399712,16.4508471 24.1705678,16.3019316 24.1705678,16.1228013 L24.1705678,12.4862415 C24.1705678,11.1157872 25.1673269,10 26.3907094,10 C26.9745529,10 27.5257472,10.2589835 27.946345,10.7294702 L34.1573641,17.7112334 C35.2808786,18.9737779 35.2808786,21.0283803 34.1573641,22.2909248 L27.946345,29.2705298 C27.5257472,29.7410165 26.9745529,30 26.3907094,30 Z M18.1317083,18.7379966 C17.4643286,18.7379966 16.9205378,19.3675776 16.9205378,20.1424464 C16.9205378,20.9679459 17.4643286,21.5975269 18.1317083,21.5975269 L23.8110903,21.5975269 C25.0165568,21.5975269 25.9995633,22.7356155 25.9995633,24.1334613 L25.9995633,27.8206924 C25.9995633,28.1134695 26.303782,28.2741668 26.4920173,28.0562349 L32.6410369,20.9371273 C33.0137047,20.5056662 33.0137047,19.807844 32.6410369,19.3785842 L26.4920173,12.2572753 C26.3018806,12.0393434 25.9995633,12.2044433 25.9995633,12.4928178 L25.9995633,16.2020622 C25.9995633,17.599908 25.0165568,18.7379966 23.8110903,18.7379966 L18.1317083,18.7379966 Z" id="arrow-circle-left" transform="translate(25.000000, 20.000000) scale(-1, 1) translate(-25.000000, -20.000000) "></path>
                </g>
            </g>
        </g>
    </g>
</svg>