<svg width="34" height="39" viewBox="0 0 34 39" xmlns="http://www.w3.org/2000/svg"><title>track</title><g fill="none" fill-rule="evenodd"><g transform="translate(-156 -39)" fill="#FFF"><g transform="translate(70 38)"><path d="M86 35.986v-1.661a5.315 5.315 0 0 1 4.545-5.285l4.005-.606a.161.161 0 0 0 .135-.159V7.587a3.574 3.574 0 0 1 3.006-3.539l18.353-3.011a2.761 2.761 0 0 1 3.207 2.724v26.274c0 2.617-1.878 4.8-4.465 5.193-4.687.71-4.489.698-4.908.698a4.016 4.016 0 0 1-4.008-4.015v-1.66a5.315 5.315 0 0 1 4.546-5.286l4.006-.607a.16.16 0 0 0 .135-.157V14.18c0-.66-.587-1.18-1.26-1.07l-12.307 2.02c-.933.151-1.61.95-1.61 1.896V34.11a5.221 5.221 0 0 1-4.465 5.191l-4.301.651A4.01 4.01 0 0 1 86 35.986zm30.315-33.301l-18.353 3.01a1.91 1.91 0 0 0-1.608 1.892v20.688c0 .912-.652 1.673-1.554 1.808l-4.004.608a3.655 3.655 0 0 0-3.127 3.634v1.66a2.344 2.344 0 0 0 2.696 2.32l4.3-.652a3.564 3.564 0 0 0 3.046-3.542V17.027a3.577 3.577 0 0 1 3.01-3.544l12.307-2.02a2.754 2.754 0 0 1 3.198 2.718V24.2c0 .911-.654 1.67-1.555 1.808l-4.005.606a3.658 3.658 0 0 0-3.126 3.635v1.661a2.345 2.345 0 0 0 2.338 2.345c.256 0-.045.034 4.657-.68a3.56 3.56 0 0 0 3.047-3.541V3.76a1.09 1.09 0 0 0-1.267-1.076z"/></g></g></g></svg>