<svg width="40" height="40" viewBox="0 0 40 40" xmlns="http://www.w3.org/2000/svg"><title>arrow-circle-left</title><g fill="none" fill-rule="evenodd"><g transform="translate(-79 -37)" fill="#FFF"><g transform="translate(74 37)"><g><path d="M25 40c11.028 0 20-8.971 20-19.999C45 8.971 36.028 0 25 0S5 8.971 5 20.001C5 31.029 13.972 40 25 40zm0-38.041c9.947 0 18.041 8.091 18.041 18.042 0 9.947-8.094 18.04-18.041 18.04-9.947 0-18.041-8.093-18.041-18.04 0-9.95 8.094-18.042 18.041-18.042zM23.61 30c1.223 0 2.22-1.116 2.22-2.486v-3.615c0-.18.13-.328.29-.328h5.736c1.734 0 3.144-1.584 3.144-3.535 0-1.999-1.41-3.585-3.144-3.585H26.12c-.159 0-.29-.15-.29-.328v-3.637c0-1.37-.996-2.486-2.22-2.486-.584 0-1.135.259-1.555.73l-6.211 6.981c-1.124 1.263-1.124 3.317 0 4.58l6.21 6.98c.421.47.972.729 1.556.729zm8.258-11.262c.668 0 1.211.63 1.211 1.404 0 .826-.543 1.456-1.21 1.456h-5.68c-1.206 0-2.189 1.138-2.189 2.535v3.688c0 .292-.304.453-.492.235l-6.149-7.119a1.226 1.226 0 0 1 0-1.558l6.149-7.122c.19-.218.492-.053.492.236v3.71c0 1.397.983 2.535 2.189 2.535h5.68z"/></g></g></g></g></svg>