<?xml version="1.0" encoding="UTF-8"?>
<svg width="103px" height="128px" viewBox="0 0 103 128" version="1.1" xmlns="http://www.w3.org/2000/svg" xmlns:xlink="http://www.w3.org/1999/xlink">
    <!-- Generator: Sketch 39.1 (31720) - http://www.bohemiancoding.com/sketch -->
    <title>head-link</title>
    <desc>Created with Sketch.</desc>
    <defs></defs>
    <g id="Page-1" stroke="none" stroke-width="1" fill="none" fill-rule="evenodd">
        <g id="buttons" transform="translate(-1172.000000, -116.000000)" stroke="#FFFFFF" stroke-width="6">
            <g id="head-link" transform="translate(1223.500000, 180.000000) rotate(-90.000000) translate(-1223.500000, -180.000000) translate(1163.000000, 132.000000)">
                <path d="M84.720928,3.42384802 C94.0267816,8.13394581 99.914762,18.5463561 99.914762,30.4855343 C99.914762,46.8764532 87.1830709,60.2833464 72.1764007,60.2833464 L27.1723188,60.2833464 C12.1656486,60.2833464 -7.10542736e-14,46.5325921 -7.10542736e-14,30.1416732 C-7.10542736e-14,13.7507543 12.1656486,-9.9475983e-14 27.1723188,-9.9475983e-14 L63.8911304,-9.9475983e-14" id="Shape" transform="translate(49.957381, 30.141673) scale(-1, -1) translate(-49.957381, -30.141673) "></path>
                <path d="M105.720928,39.1254601 C115.026782,43.8355579 120.914762,54.2479681 120.914762,66.1871464 C120.914762,82.5780653 108.183071,95.9849585 93.1764007,95.9849585 L48.1723188,95.9849585 C33.1656486,95.9849585 21,82.2342041 21,65.8432853 C21,49.4523664 33.1656486,35.7016121 48.1723188,35.7016121 L84.8911304,35.7016121" id="Shape"></path>
            </g>
        </g>
    </g>
</svg>