<svg width="40" height="40" viewBox="0 0 40 40" xmlns="http://www.w3.org/2000/svg"><title>vol</title><g fill="none" fill-rule="evenodd"><g transform="translate(-74 -38)" fill="#FFF"><g transform="translate(70 38)"><path d="M24 0C12.954 0 4 8.955 4 20c0 11.047 8.955 20 20 20s20-8.953 20-20C44 8.956 35.045 0 24 0zm0 32.727c-7.03 0-12.727-5.699-12.727-12.726 0-7.03 5.697-12.728 12.727-12.728S36.727 12.972 36.727 20c0 7.027-5.697 12.726-12.727 12.726zm0-21.818c-5.02 0-9.09 4.072-9.09 9.092A9.09 9.09 0 0 0 24 29.09a9.09 9.09 0 1 0 0-18.182zm-3.636 9.092a3.637 3.637 0 1 1 7.274 0 3.637 3.637 0 0 1-7.274 0z"/></g></g></g></svg>