<?xml version="1.0" encoding="UTF-8"?>
<svg width="34px" height="39px" viewBox="0 0 34 39" version="1.1" xmlns="http://www.w3.org/2000/svg" xmlns:xlink="http://www.w3.org/1999/xlink">
    <!-- Generator: Sketch 39.1 (31720) - http://www.bohemiancoding.com/sketch -->
    <title>track</title>
    <desc>Created with Sketch.</desc>
    <defs></defs>
    <g id="Page-1" stroke="none" stroke-width="1" fill="none" fill-rule="evenodd">
        <g id="vol" transform="translate(-156.000000, -39.000000)" fill="#FFFFFF">
            <g id="head" transform="translate(70.000000, 38.000000)">
                <g id="track" transform="translate(80.000000, 1.000000)">
                    <path d="M6,34.9856321 L6,33.3247522 C6,30.6623366 7.91126383,28.4389275 10.5453025,28.0399825 L14.5497758,27.4340534 C14.6265602,27.4223688 14.6849831,27.3539306 14.6849831,27.2754769 L14.6849831,6.58708925 C14.6849831,4.82271732 15.9502565,3.33376768 17.6912593,3.04833002 L36.0443997,0.0370462247 C37.7386642,-0.2400453 39.250983,1.0736356 39.250983,2.76122314 L39.250983,29.0348412 C39.250983,31.6521877 37.3731037,33.8355353 34.7858033,34.2278035 C30.0986165,34.9372245 30.2972544,34.9255399 29.8782787,34.9255399 C27.6682234,34.9255399 25.8704669,33.124445 25.8704669,30.9110513 L25.8704669,29.2501714 C25.8704669,26.5860866 27.7834,24.3643467 30.4157695,23.9654017 L34.421912,23.3578034 C34.4986964,23.3461188 34.5571193,23.2793498 34.5571193,23.2008962 L34.5571193,13.1805322 C34.5571193,12.5211879 33.9695517,12.0003893 33.2968536,12.1105583 L20.9896499,14.1303218 C20.0565526,14.2822214 19.380516,15.0801114 19.380516,16.0265626 L19.380516,33.1110912 C19.380516,35.7267684 17.5026367,37.9101161 14.9153363,38.3023842 L10.6137408,38.9533824 C8.18000922,39.3239506 6,37.4377252 6,34.9856321 L6,34.9856321 Z M36.3148143,1.68457234 L17.9616739,4.69585614 C17.0302458,4.84775571 16.3542092,5.64397653 16.3542092,6.58708925 L16.3542092,27.2754769 C16.3542092,28.1868744 15.7015418,28.9480414 14.8001597,29.0832488 L10.7956864,29.690847 C8.98457618,29.9646001 7.66922605,31.4936112 7.66922605,33.3247522 L7.66922605,34.9856321 C7.66922605,36.4245049 8.94785321,37.517848 10.3650261,37.3041871 L14.6649524,36.6531889 C16.4293244,36.3844435 17.71129,34.8954939 17.71129,33.1110912 L17.71129,16.0265626 C17.71129,14.2588522 18.9765633,12.7682333 20.7209046,12.4827957 L33.0281082,10.4630321 C34.717365,10.1859406 36.2263454,11.4979523 36.2263454,13.1805322 L36.2263454,23.2008962 C36.2263454,24.1122936 35.5720087,24.8717914 34.6706267,25.008668 L30.6661534,25.614597 C28.8550431,25.8900193 27.539693,27.4190304 27.539693,29.2501714 L27.539693,30.9110513 C27.539693,32.2047015 28.5896362,33.2563139 29.8782787,33.2563139 C30.1336703,33.2563139 29.8332096,33.2896984 34.5354194,32.5769389 C36.3014605,32.3098627 37.5817569,30.8209131 37.5817569,29.0348412 L37.5817569,2.76122314 C37.5817569,2.09687117 36.9891817,1.57440342 36.3148143,1.68457234 L36.3148143,1.68457234 Z"></path>
                </g>
            </g>
        </g>
    </g>
</svg>