<?xml version="1.0" encoding="UTF-8"?>
<svg width="149px" height="149px" viewBox="0 0 149 149" version="1.1" xmlns="http://www.w3.org/2000/svg" xmlns:xlink="http://www.w3.org/1999/xlink">
    <!-- Generator: Sketch 39.1 (31720) - http://www.bohemiancoding.com/sketch -->
    <title>link</title>
    <desc>Created with Sketch.</desc>
    <defs></defs>
    <g id="Welcome" stroke="none" stroke-width="1" fill="none" fill-rule="evenodd">
        <g id="Luoo.qy-0.0.3" transform="translate(-42.000000, -517.000000)" fill="#231F1F">
            <g id="nav">
                <g id="button" transform="translate(42.000000, 359.000000)">
                    <path d="M140.381072,168.378765 L138.615848,166.613541 C127.134715,155.132408 108.542455,155.125232 97.0613213,166.613541 L74.5295973,189.138089 C66.3564655,197.311221 63.9526033,209.524277 68.4087181,220.25196 C68.7603278,221.084343 68.4948266,222.131996 67.748553,222.87827 L64.8710939,225.755729 C64.1606988,226.473299 63.0915183,226.774679 62.2519604,226.408718 C51.7395478,222.038712 39.1820583,224.471277 31.1380893,232.522422 L8.61354103,255.054146 C-2.86759221,266.535279 -2.87476792,285.120363 8.61354103,296.608672 L10.385941,298.381072 C21.8598985,309.85503 40.4306315,309.890908 51.9404676,298.381072 L74.4721916,275.849348 C82.6596748,267.661865 85.0563613,255.434458 80.5715436,244.706774 C80.2271096,243.874392 80.4854351,242.819563 81.2317088,242.073289 L84.080465,239.231709 C84.8052115,238.514138 85.8887435,238.234285 86.7139499,238.578719 C90.2228713,240.042564 93.9398882,240.788838 97.757365,240.788838 C105.349264,240.788838 112.489094,237.832446 117.856524,232.45784 L140.381072,209.933292 C151.85503,198.459334 151.890908,179.888601 140.381072,168.378765 L140.381072,168.378765 Z M58.6641063,254.422683 C57.3222488,255.075673 54.932738,255.743014 53.0814052,253.891681 C51.7969535,252.607229 51.7395478,249.959393 52.5504028,248.273101 L90.179817,210.650863 C90.4381425,210.57193 90.7036437,210.550403 90.9476178,210.435591 C92.2894753,209.818481 93.9398882,209.402289 95.7553424,211.217744 C97.0039156,212.459141 97.3052954,214.353528 96.5446703,216.011117 C96.4298589,216.255091 96.4011561,216.513416 96.3222233,216.764566 L58.6641063,254.422683 L58.6641063,254.422683 Z M100.835744,206.144518 C98.7045585,204.013333 95.8701537,202.836516 92.8563562,202.836516 L92.7415449,202.836516 L112.632608,182.945453 C115.352202,180.240211 120.059466,180.240211 122.77906,182.945453 L124.04916,184.215553 C125.405369,185.564587 126.151643,187.365689 126.151643,189.288779 C126.151643,191.197518 125.398193,192.99862 124.04916,194.362005 L104.143745,214.260244 C104.1868,211.267974 103.045862,208.354636 100.835744,206.144518 L100.835744,206.144518 Z M48.0010038,258.964907 C50.1680677,261.13197 53.2320951,262.308787 56.138257,262.272908 L36.3691807,282.04916 C33.6495872,284.768754 28.9351469,284.754402 26.2155534,282.04916 L24.9454531,280.77906 C22.1541026,277.980534 22.1541026,273.423959 24.9454531,270.632608 L44.7073537,250.870708 C44.6858265,253.855802 45.8267642,256.783491 48.0010038,258.964907 L48.0010038,258.964907 Z M69.3989659,270.776122 L46.8672419,293.307846 C38.4644875,301.710601 23.8332183,301.696249 15.4591667,293.307846 L13.6867668,291.535446 C9.48897744,287.344833 7.18557509,281.769307 7.18557509,275.827821 C7.18557509,269.900686 9.48897744,264.325161 13.6867668,260.127371 L36.2113151,237.595647 C40.222536,233.591602 45.5540872,231.381484 51.2300725,231.381484 C53.5837048,231.381484 55.86558,231.855081 58.0756982,232.601354 L49.4648483,241.21938 C47.3480143,240.329592 44.7432322,240.688378 43.0712922,242.353142 L19.8722273,265.559382 C14.2823506,271.149259 14.2823506,280.262409 19.8722273,285.852285 L21.1423277,287.122386 C23.8547454,289.834804 27.456951,291.327351 31.2959549,291.327351 C35.1277831,291.327351 38.7299887,289.834804 41.4424064,287.122386 L64.6342956,263.916145 C66.370817,262.1868 66.7224267,259.617896 65.7608818,257.479535 L74.4076102,248.825631 C77.0410952,256.51799 75.1825867,264.992502 69.3989659,270.776122 L69.3989659,270.776122 Z M135.307846,204.860066 L112.783298,227.384614 C107.092961,233.082127 98.396003,234.954987 90.8328065,232.400435 L99.4723593,223.760882 C101.86187,224.851589 104.351841,224.205776 105.952024,222.598417 L129.122386,199.435231 C131.834804,196.722813 133.327351,193.120607 133.327351,189.288779 C133.327351,185.449775 131.834804,181.84757 129.122386,179.142328 L127.852285,177.872227 C122.42745,172.447392 112.984218,172.447392 107.559382,177.872227 L84.3961962,201.028238 C82.7888375,202.635597 82.1573752,205.118392 83.2050286,207.4792 L74.5726515,216.104401 C71.9678694,208.426393 73.8335536,199.980585 79.602823,194.211315 L102.134547,171.686767 C110.508599,163.298364 125.139868,163.284012 133.542622,171.686767 L135.307846,173.451991 C139.505636,177.64978 141.816214,183.225306 141.816214,189.152441 C141.816214,195.086751 139.505636,200.669453 135.307846,204.860066 L135.307846,204.860066 Z" id="link"></path>
                </g>
            </g>
        </g>
    </g>
</svg>