<?xml version="1.0" encoding="UTF-8"?>
<svg width="68px" height="69px" viewBox="0 0 68 69" version="1.1" xmlns="http://www.w3.org/2000/svg" xmlns:xlink="http://www.w3.org/1999/xlink">
    <!-- Generator: Sketch 39.1 (31720) - http://www.bohemiancoding.com/sketch -->
    <title>Next</title>
    <desc>Created with Sketch.</desc>
    <defs></defs>
    <g id="Welcome" stroke="none" stroke-width="1" fill="none" fill-rule="evenodd">
        <g id="Luoo.qy-0.0.3-Vol-View" transform="translate(-1350.000000, -941.000000)">
            <g id="playing" transform="translate(130.000000, 888.000000)">
                <g id="controlor" transform="translate(991.000000, 47.000000)">
                    <g id="Next" transform="translate(229.691218, 6.736842)">
                        <g id="Untitled">
                            <g id="Page-1">
                                <g id="Group-454">
                                    <path d="M67.3087819,33.6842105 C67.3087819,52.2882591 52.2419699,67.3684211 33.6543909,67.3684211 C15.0668119,67.3684211 0,52.2882591 0,33.6842105 C0,15.0801619 15.0668119,0 33.6543909,0 C52.2419699,0 67.3087819,15.0801619 67.3087819,33.6842105 L67.3087819,33.6842105 L67.3087819,33.6842105 Z" id="Stroke-451" fill="#E06979"></path>
                                    <polygon id="Stroke-453" fill="#FFFFFF" points="33.6543909 33.6842105 18.1215951 23.3198381 18.1215951 44.048583"></polygon>
                                    <path d="M44.0095881,44.048583 L41.4207888,44.048583 C39.9969492,44.048583 38.8319895,42.8825911 38.8319895,41.4574899 L38.8319895,25.9109312 C38.8319895,24.48583 39.9969492,23.3198381 41.4207888,23.3198381 L44.0095881,23.3198381 C45.4334278,23.3198381 46.5983874,24.48583 46.5983874,25.9109312 L46.5983874,41.4574899 C46.5983874,42.8825911 45.4334278,44.048583 44.0095881,44.048583 L44.0095881,44.048583 L44.0095881,44.048583 Z" id="Stroke-455" fill="#FFFFFF"></path>
                                </g>
                            </g>
                        </g>
                    </g>
                </g>
            </g>
        </g>
    </g>
</svg>