<?xml version="1.0" encoding="UTF-8"?>
<svg width="44px" height="37px" viewBox="0 0 44 37" version="1.1" xmlns="http://www.w3.org/2000/svg" xmlns:xlink="http://www.w3.org/1999/xlink">
    <!-- Generator: Sketch 39.1 (31720) - http://www.bohemiancoding.com/sketch -->
    <title>page</title>
    <desc>Created with Sketch.</desc>
    <defs></defs>
    <g id="Page-1" stroke="none" stroke-width="1" fill="none" fill-rule="evenodd">
        <g id="user" transform="translate(-491.000000, -398.000000)" stroke="#FFFFFF" stroke-width="2">
            <g id="page" transform="translate(492.000000, 399.000000)">
                <path d="M21,25.8695652 L6.39130435,25.8695652" id="Shape"></path>
                <path d="M21,21.3043478 L6.39130435,21.3043478" id="Shape"></path>
                <path d="M21,16.7391304 L6.39130435,16.7391304" id="Shape"></path>
                <path d="M11.8695652,12.173913 L6.39130435,12.173913" id="Shape"></path>
                <path d="M32.8695652,25.8695652 C32.8695652,25.9990652 36.5310522,34.4086522 36.5310522,34.4086522 C36.8170174,35.1564348 37.9632522,35.2227826 38.2780696,34.4089565 C38.2780696,34.4089565 42,25.9993696 42,25.869413" id="Shape"></path>
                <path d="M35.5867826,31.9565217 L39.1496609,31.9565217" id="Shape"></path>
                <path d="M25.9291565,35 L1.61553913,35 C0.825573913,35 0,34.4585652 0,33.7920435 L0,1.20795652 C0,0.541434783 0.825573913,0 1.61553913,0 L20.2076609,0 L27.3913043,6.03582609 L27.3913043,33.7920435 C27.3913043,34.4585652 26.7189391,35 25.9291565,35 L25.9291565,35 Z" id="Shape"></path>
                <polyline id="Shape" points="20.2076609 0.0012173913 20.2076609 6.03582609 27.3593478 6.03582609"></polyline>
                <path d="M38.5304348,0 L36.4755391,0 C34.4586261,0 32.8695652,1.36378261 32.8695652,3.04469565 L32.8695652,25.8695652 L42,25.8695652 L42,3.04469565 C42,1.36378261 40.5475304,0 38.5304348,0 L38.5304348,0 Z" id="Shape"></path>
            </g>
        </g>
    </g>
</svg>