<?xml version="1.0" encoding="UTF-8"?>
<svg width="81px" height="80px" viewBox="0 0 81 80" version="1.1" xmlns="http://www.w3.org/2000/svg" xmlns:xlink="http://www.w3.org/1999/xlink">
    <!-- Generator: Sketch 39.1 (31720) - http://www.bohemiancoding.com/sketch -->
    <title>Pause</title>
    <desc>Created with Sketch.</desc>
    <defs></defs>
    <g id="Welcome" stroke="none" stroke-width="1" fill="none" fill-rule="evenodd">
        <g id="Luoo.qy-0.0.3-Vol-View" transform="translate(-1232.000000, -935.000000)">
            <g id="playing" transform="translate(130.000000, 888.000000)">
                <g id="controlor" transform="translate(991.000000, 47.000000)">
                    <g id="Pause" transform="translate(111.900850, 0.000000)">
                        <g id="Untitled">
                            <g id="Page-1">
                                <g id="Group-463">
                                    <path d="M79.9291785,40 C79.9291785,62.0923077 62.0365707,80 39.9645892,80 C17.8926077,80 0,62.0923077 0,40 C0,17.9076923 17.8926077,0 39.9645892,0 C62.0365707,0 79.9291785,17.9076923 79.9291785,40 L79.9291785,40 L79.9291785,40 Z" id="Stroke-462" fill="#E06979"></path>
                                    <path d="M51.866541,58 L47.6366019,58 C45.9436831,58 44.5714286,56.4437347 44.5714286,54.523806 L44.5714286,25.476194 C44.5714286,23.5562653 45.9436831,22 47.6366019,22 L51.866541,22 C53.5594598,22 54.9317143,23.5562653 54.9317143,25.476194 L54.9317143,54.523806 C54.9317143,56.4437347 53.5594598,58 51.866541,58 Z M31.2951124,58 L27.0651733,58 C25.3722545,58 24,56.4437347 24,54.523806 L24,25.476194 C24,23.5562653 25.3722545,22 27.0651733,22 L31.2951124,22 C32.9880312,22 34.3602857,23.5562653 34.3602857,25.476194 L34.3602857,54.523806 C34.3602857,56.4437347 32.9880312,58 31.2951124,58 Z" id="pause" fill="#FFFFFF"></path>
                                </g>
                            </g>
                        </g>
                    </g>
                </g>
            </g>
        </g>
    </g>
</svg>