<?xml version="1.0" encoding="UTF-8"?>
<svg width="111px" height="92px" viewBox="0 0 111 92" version="1.1" xmlns="http://www.w3.org/2000/svg" xmlns:xlink="http://www.w3.org/1999/xlink">
    <!-- Generator: Sketch 39.1 (31720) - http://www.bohemiancoding.com/sketch -->
    <title>play-shuffle</title>
    <desc>Created with Sketch.</desc>
    <defs></defs>
    <g id="Page-1" stroke="none" stroke-width="1" fill="none" fill-rule="evenodd">
        <g id="buttons" transform="translate(-402.000000, -289.000000)" stroke-width="6" stroke="#FFFFFF">
            <g id="play-shuffle" transform="translate(402.000000, 292.000000)">
                <polyline id="Shape" points="93.0174945 0.0796847331 106.726944 13.403368 93.0174945 26.7270513"></polyline>
                <path d="M106.726944,13.403368 L81.1994604,13.403368 C65.2782669,13.403368 52.3719306,27.7822554 52.3719306,43.2554466 L52.3719306,43.2554466 L52.3719306,44.9906931 C52.3719306,60.4638843 39.4655938,73.0070534 23.5444008,73.0070534 L0.128335115,73.0070534" id="Shape"></path>
                <polyline id="Shape" points="93.0174945 86.3307365 106.726944 73.0070534 93.0174945 59.68337"></polyline>
                <path d="M106.726944,73.0070534 L81.1994604,73.0070534 C73.9261184,73.0070534 67.301073,70.3690433 62.2292897,66.0502297" id="Shape"></path>
                <path d="M42.5145714,20.3601917 C37.4427882,16.0413781 30.8172333,13.403368 23.5444008,13.403368 L0.128335115,13.403368" id="Shape"></path>
            </g>
        </g>
    </g>
</svg>