<?xml version="1.0" encoding="UTF-8"?>
<svg width="148px" height="141px" viewBox="0 0 148 141" version="1.1" xmlns="http://www.w3.org/2000/svg" xmlns:xlink="http://www.w3.org/1999/xlink">
    <!-- Generator: Sketch 39.1 (31720) - http://www.bohemiancoding.com/sketch -->
    <title>star5</title>
    <desc>Created with Sketch.</desc>
    <defs></defs>
    <g id="Welcome" stroke="none" stroke-width="1" fill="none" fill-rule="evenodd">
        <g id="Luoo.qy-0.0.3" transform="translate(-42.000000, -664.000000)" fill="#231F1F">
            <g id="nav">
                <g id="button" transform="translate(42.000000, 359.000000)">
                    <path d="M106.990705,444.050364 L77.1469462,422.356352 C75.087345,420.8628 72.1411604,420.8628 70.0747392,422.356352 L40.2309806,444.050364 C32.715482,449.506262 21.6945693,442.352216 24.7907911,432.831675 L36.1867967,397.743435 C36.9983615,395.247362 36.118598,392.553513 34.0044378,391.012222 L4.15385931,369.33185 C-3.71627264,363.609977 0.348370895,351.177351 10.0530483,351.177351 L46.9553742,351.177351 C49.5605651,351.177351 51.8588619,349.506483 52.6704266,347.024049 L64.0664323,311.93581 C67.0808156,302.688063 80.1476898,302.688063 83.1552532,311.93581 L94.5580787,347.024049 C95.3628235,349.506483 97.6611203,351.177351 100.273131,351.177351 L137.168637,351.177351 C146.893774,351.177351 150.924318,363.623617 143.067826,369.33185 L113.217248,391.012222 C111.109907,392.553513 110.230144,395.247362 111.034889,397.743435 L122.437714,432.831675 C125.445278,442.086241 114.847197,449.731317 106.990705,444.050364 L106.990705,444.050364 Z M81.1570308,416.839076 L111.000789,438.533088 C113.421844,440.292615 116.940898,438.007958 115.952016,434.939016 L104.549191,399.843956 C102.830583,394.538096 104.699228,388.768484 109.207163,385.501766 L139.057742,363.814574 C141.581094,361.986848 140.298958,357.997223 137.168637,357.997223 L100.273131,357.997223 C94.6944761,357.997223 89.7909884,354.43725 88.0723807,349.13139 L76.6695552,314.03633 C75.7011334,311.076506 71.520552,311.076506 70.5589501,314.03633 L59.1561246,349.13139 C57.437517,354.43725 52.5340292,357.997223 46.9553742,357.997223 L10.0530483,357.997223 C6.92954709,357.997223 5.64741121,361.986848 8.16394387,363.814574 L38.0145223,385.501766 C42.5224575,388.768484 44.3979223,394.538096 42.6793146,399.843956 L31.2764891,434.939016 C30.273968,437.987498 33.7589224,440.306255 36.2208961,438.533088 L66.0646547,416.839076 C70.5725899,413.565538 76.6490956,413.565538 81.1570308,416.839076 L81.1570308,416.839076 Z" id="star5"></path>
                </g>
            </g>
        </g>
    </g>
</svg>