<svg width="37" height="42" viewBox="0 0 37 42" xmlns="http://www.w3.org/2000/svg"><title>update</title><g fill="none" fill-rule="evenodd"><g transform="translate(-190 -389)" fill="#FFF"><g transform="translate(189 389)"><g transform="matrix(-1 0 0 1 37.905 7.174)" stroke="#FFF" stroke-width=".6"><path d="M18.383 33.911L.88 27.601V5.02l17.503 6.31v22.58zm-.786-1.695L2.206 26.539V7.209l15.39 5.677v19.33z"/><path transform="rotate(70 7.486 3.082)" d="M6.813 -3.59H8.158999999999999V9.753H6.813z"/></g><g transform="translate(.633 7.174)" stroke="#FFF" stroke-width=".6"><path d="M18.383 33.911L.88 27.601V5.02l17.503 6.31v22.58zm-.786-1.695L2.206 26.539V7.209l15.39 5.677v19.33z"/><path transform="rotate(70 7.486 3.082)" d="M6.813 -3.59H8.158999999999999V9.753H6.813z"/></g><path d="M18.192 2.404L14.83 4.673 14 3.443l4.938-3.33.076-.113.046.03.045-.03.076.113 4.939 3.33-.83 1.23-3.319-2.24v11.851h-1.779V2.404z"/></g></g></g></svg>