<?xml version="1.0" encoding="UTF-8"?>
<svg width="35px" height="30px" viewBox="0 0 35 30" version="1.1" xmlns="http://www.w3.org/2000/svg" xmlns:xlink="http://www.w3.org/1999/xlink">
    <!-- Generator: Sketch 39.1 (31720) - http://www.bohemiancoding.com/sketch -->
    <title>volume controller</title>
    <desc>Created with Sketch.</desc>
    <defs></defs>
    <g id="Page-1" stroke="none" stroke-width="1" fill="none" fill-rule="evenodd">
        <g id="vol" transform="translate(-1259.000000, -947.000000)" stroke="#FFFFFF" stroke-width="2">
            <g id="playing" transform="translate(28.000000, 919.000000)">
                <g id="volume" transform="translate(1232.436271, 29.610526)">
                    <g id="volume-controller" transform="translate(-0.000000, 0.000000)">
                        <path d="M6.97226453,20.4903407 L1.17323437,20.4903407 C0.707430312,20.4903407 0.329985252,20.1666725 0.329985252,19.6679077 L0.329985252,7.96548546 C0.329985252,7.46672057 0.707430312,7.07867642 1.17323437,7.07867642 L6.81536799,7.07867642 L14.9484436,0.734363129 C16.9617166,-0.644504979 17.0805057,1.67645804 17.0805057,1.67645804 L17.0805057,25.9344333 C17.0805057,25.9344333 16.9617166,28.2218671 14.9484436,26.8443402 L6.97226453,20.4903407 L6.97226453,20.4903407 Z" id="Shape"></path>
                        <path d="M24.117818,20.823099 C25.8741101,19.0673631 26.978109,16.5769661 26.978109,13.8055202 C26.978109,11.0340743 25.8742497,8.54367721 24.1179576,6.78794134" id="Shape"></path>
                        <path d="M28.1519017,24.2248931 C30.7232462,21.5973991 32.3319941,17.9054659 32.3319941,13.8055202 C32.3319941,9.70572341 30.7232462,6.01364125 28.1519017,3.3861472" id="Shape"></path>
                        <path d="M19.7959046,10.1898845 C20.738261,11.0716269 21.3362545,12.3627231 21.3362545,13.8055202 C21.3362545,15.2483172 20.738261,16.5394134 19.7959046,17.4211558" id="Shape"></path>
                    </g>
                </g>
            </g>
        </g>
    </g>
</svg>