<?xml version="1.0" encoding="UTF-8"?>
<svg width="179px" height="149px" viewBox="0 0 179 149" version="1.1" xmlns="http://www.w3.org/2000/svg" xmlns:xlink="http://www.w3.org/1999/xlink">
    <!-- Generator: Sketch 39.1 (31720) - http://www.bohemiancoding.com/sketch -->
    <title>volume-on</title>
    <desc>Created with Sketch.</desc>
    <defs></defs>
    <g id="Page-1" stroke="none" stroke-width="1" fill="none" fill-rule="evenodd">
        <g id="buttons" transform="translate(-717.000000, -103.000000)" stroke="#FFFFFF" stroke-width="6">
            <g id="volume-on" transform="translate(720.000000, 106.000000)">
                <path d="M35.8937159,106.620722 L4.69933426,106.620722 C2.1936619,106.620722 0.163293909,104.913941 0.163293909,102.283833 L0.163293909,40.5741167 C0.163293909,37.9440083 2.1936619,35.8977572 4.69933426,35.8977572 L35.0497315,35.8977572 L78.7995065,2.44265162 C89.6293874,-4.82845495 90.2683826,7.410547 90.2683826,7.410547 L90.2683826,135.328745 C90.2683826,135.328745 89.6293874,147.390939 78.7995065,140.126905 L35.8937159,106.620722 L35.8937159,106.620722 L35.8937159,106.620722 Z" id="Shape"></path>
                <path d="M128.123782,108.375437 C137.571301,99.1170151 143.509978,85.9845466 143.509978,71.3700389 C143.509978,56.7555313 137.572052,43.6230623 128.124533,34.3646405" id="Shape"></path>
                <path d="M149.824091,126.313924 C163.655974,112.45851 172.309817,92.9900488 172.309817,71.3700389 C172.309817,49.7508143 163.655974,30.2815679 149.824091,16.4261534" id="Shape"></path>
                <path d="M104.875168,52.3039134 C109.94433,56.9535553 113.161082,63.7618193 113.161082,71.3700389 C113.161082,78.9782581 109.94433,85.7865221 104.875168,90.436164" id="Shape"></path>
            </g>
        </g>
    </g>
</svg>