<?xml version="1.0" encoding="UTF-8"?>
<svg width="153px" height="144px" viewBox="0 0 153 144" version="1.1" xmlns="http://www.w3.org/2000/svg" xmlns:xlink="http://www.w3.org/1999/xlink">
    <!-- Generator: Sketch 39.1 (31720) - http://www.bohemiancoding.com/sketch -->
    <title>volumemax</title>
    <desc>Created with Sketch.</desc>
    <defs></defs>
    <g id="Welcome" stroke="none" stroke-width="1" fill="none" fill-rule="evenodd" opacity="1">
        <g id="Luoo.qy-0.0.3" transform="translate(-31.000000, -774.000000)" fill="#231F1F">
            <g id="nav">
                <g id="volumn" transform="translate(31.000000, 582.000000)">
                    <path d="M51.1022923,219.323175 C42.142918,226.139174 34.2458001,231.9962 28.1757633,236.517945 C24.988994,238.903242 22.2331973,240.960788 15.7868182,240.960788 C9.68036117,240.960788 2.22028595,244.098697 1.27943025,252.947964 C0.350714616,261.766885 0.350714616,266.7317 1.27943025,275.538482 C2.22028595,284.38775 9.68036117,287.525659 15.7868182,287.525659 C22.2331973,287.525659 24.988994,289.583205 28.1757633,291.968501 C34.2458001,296.490246 42.0700775,302.292647 51.1022923,309.163272 C59.1208109,315.263076 65.3425986,311.317929 65.6036102,302.444383 C65.8403416,294.541951 66.8722479,278.221182 66.8722479,264.243223 C66.8722479,250.259195 65.8464117,233.956635 65.6036102,226.042063 C65.3425986,217.156379 59.1086708,213.23551 51.1022923,219.323175 L51.1022923,219.323175 Z M59.5396434,302.262299 C59.4000326,306.8326 58.1253249,306.875087 54.7807346,304.331984 C45.77887,297.485637 37.8817521,291.628611 31.8117153,287.112936 C28.2728839,284.460583 24.2545195,281.456202 15.7868182,281.456202 C8.76985565,281.456202 7.52549811,276.873762 7.31911686,274.901189 C6.43896152,266.537478 6.43896152,261.942899 7.31911686,253.585257 C7.52549811,251.612684 8.76985565,247.030244 15.7868182,247.030244 C24.2545195,247.030244 28.2728839,244.025863 31.8117153,241.373511 C37.8817521,236.857835 45.7606599,231.012948 54.7807346,224.154462 C58.1131848,221.617429 59.4000326,221.641707 59.5396434,226.224147 C59.7763749,234.156927 60.8022111,250.417001 60.8022111,264.243223 C60.8022111,278.063376 59.7763749,294.335589 59.5396434,302.262299 Z M124.009504,193.837526 C122.825847,192.647913 120.907715,192.641843 119.717988,193.819318 C118.522191,194.996793 118.516121,196.92081 119.693708,198.110424 C137.260395,215.839307 146.929963,239.273479 146.929963,264.097556 C146.929963,288.933773 137.248255,312.374014 119.675498,330.102897 C118.491841,331.292511 118.503981,333.216528 119.693708,334.394003 C120.282502,334.98274 121.059466,335.274074 121.830361,335.274074 C122.607326,335.274074 123.390361,334.976671 123.985224,334.375794 C142.699148,315.499784 153,290.542179 153,264.097556 C153,237.665073 142.705218,212.713536 124.009504,193.837526 Z M106.115036,211.833465 C104.937449,210.637782 103.013247,210.625643 101.82352,211.797048 C100.627723,212.974523 100.615582,214.898541 101.79317,216.088154 C114.509897,228.997889 121.514719,246.046992 121.514719,264.097556 C121.514719,282.160259 114.497757,299.215432 101.768889,312.125166 C100.591302,313.320849 100.603442,315.238798 101.79924,316.416272 C102.394103,316.99894 103.158928,317.290274 103.929823,317.290274 C104.712857,317.290274 105.495892,316.986801 106.090756,316.385925 C119.94865,302.335133 127.584756,283.762596 127.584756,264.097556 C127.584756,244.444656 119.96079,225.884257 106.115036,211.833465 Z M88.6758201,229.119278 C87.504303,227.923595 85.5801013,227.905386 84.384304,229.076791 C83.1885068,230.254266 83.1702967,232.172214 84.3418138,233.367897 C92.4453129,241.628428 96.90679,252.541311 96.90679,264.097556 C96.90679,275.665941 92.4392429,286.584893 84.3236037,294.845423 C83.1460165,296.041106 83.1642266,297.959055 84.3600239,299.136529 C84.9488175,299.719197 85.7197121,300.004462 86.4845368,300.004462 C87.2736416,300.004462 88.0566763,299.700989 88.6515399,299.100113 C97.8901359,289.692455 102.976827,277.262208 102.976827,264.097556 C102.976827,250.945044 97.902276,238.520866 88.6758201,229.119278 Z" id="volumemax"></path>
                </g>
            </g>
        </g>
    </g>
</svg>