<svg width="179" height="149" viewBox="0 0 179 149" xmlns="http://www.w3.org/2000/svg"><title>volume-on</title><path d="M38.894 109.62H7.699c-2.505 0-4.536-1.706-4.536-4.336v-61.71c0-2.63 2.03-4.676 4.536-4.676h30.35L81.8 5.443c10.83-7.271 11.47 4.967 11.47 4.967v127.918s-.64 12.062-11.47 4.798L38.895 109.62zm92.23 1.755c9.447-9.258 15.386-22.39 15.386-37.005 0-14.614-5.938-27.747-15.385-37.005m21.7 91.949c13.831-13.855 22.485-33.324 22.485-54.944 0-21.62-8.654-41.088-22.486-54.944m-44.949 35.878c5.07 4.65 8.286 11.458 8.286 19.066 0 7.608-3.217 14.417-8.286 19.066" stroke="#FFF" stroke-width="6" fill="none"/></svg>