<svg width="179" height="149" viewBox="0 0 179 149" xmlns="http://www.w3.org/2000/svg"><title>volume-on</title><g fill="none" fill-rule="evenodd"><g transform="translate(-717 -103)" stroke="#FFF" stroke-width="6"><g transform="translate(720 106)"><path d="M35.894 106.62H4.699c-2.505 0-4.536-1.706-4.536-4.336v-61.71c0-2.63 2.03-4.676 4.536-4.676h30.35L78.8 2.443C89.63-4.828 90.27 7.41 90.27 7.41v127.918s-.64 12.062-11.47 4.798L35.895 106.62zm92.23 1.755c9.447-9.258 15.386-22.39 15.386-37.005 0-14.614-5.938-27.747-15.385-37.005m21.7 91.949c13.831-13.855 22.485-33.324 22.485-54.944 0-21.62-8.654-41.088-22.486-54.944m-44.949 35.878c5.07 4.65 8.286 11.458 8.286 19.066 0 7.608-3.217 14.417-8.286 19.066"/></g></g></g></svg>