<svg width="39" height="39" viewBox="0 0 39 39" xmlns="http://www.w3.org/2000/svg"><title>website</title><g fill="none" fill-rule="evenodd"><g transform="translate(-341 -396)" stroke="#FFF" stroke-width="2"><g transform="translate(342 397)"><circle cx="18.299" cy="18.299" r="18.299"/><path d="M6.42 6.779s-2.446 5.614.515 4.569c2.188-.772 2.381-1.673 2.381-1.673l1.287-2.252s.193 3.153.45 3.603c.258.45 1.287 1.738 1.673-.064.71-3.313.83-4.247 2.052-4.247 1.223 0 3.74-.966 3.998 1.994.257 2.96-.257 1.223-1.866 1.996-1.61.772-1.996 3.475-.515 3.796.91.198 2.525.785 3.634 1.208 3.594 1.37 3.702 5.332 3.702 8.831 0 0 .065 4.055 1.545 3.09 1.48-.966 5.534-7.273 4.697-9.654-.836-2.38-.9-2.638.644-3.475 1.544-.836 2.638-1.866 2.574-3.024M3.282 21.885s.45-5.107 1.48-4.291c1.03.816 1.48.816 2.381 1.717.902.901 4.763 1.416 3.476 2.574-1.287 1.159-1.782 1.092-3.539 6.243"/></g></g></g></svg>