<?xml version="1.0" encoding="UTF-8"?>
<svg width="66px" height="66px" viewBox="0 0 66 66" version="1.1" xmlns="http://www.w3.org/2000/svg" xmlns:xlink="http://www.w3.org/1999/xlink">
    <!-- Generator: Sketch 51.3 (57544) - http://www.bohemiancoding.com/sketch -->
    <title>radio</title>
    <desc>Created with Sketch.</desc>
    <defs></defs>
    <g id="main" stroke="none" stroke-width="1" fill="none" fill-rule="evenodd">
        <g id="res" transform="translate(-242.000000, -924.000000)" fill="#FFFFFF">
            <g id="radio" transform="translate(242.000000, 924.000000)">
                <g id="icons" transform="translate(10.000000, 11.000000)">
                    <path d="M33.25,36.7142857 C35.18025,36.7142857 36.75,35.1338571 36.75,33.1904762 C36.75,31.2470952 35.18025,29.6666667 33.25,29.6666667 C31.31975,29.6666667 29.75,31.2470952 29.75,33.1904762 C29.75,35.1338571 31.31975,36.7142857 33.25,36.7142857 L33.25,36.7142857 Z M33.25,31.4285714 C34.216,31.4285714 35,32.2196667 35,33.1904762 C35,34.1612857 34.216,34.952381 33.25,34.952381 C32.284,34.952381 31.5,34.1612857 31.5,33.1904762 C31.5,32.2196667 32.284,31.4285714 33.25,31.4285714 L33.25,31.4285714 Z" id="Shape"></path>
                    <path d="M33.271,27.9047619 C33.74175,27.9047619 34.181,27.7197619 34.5065,27.3832381 C34.8355,27.0467143 35.0105,26.5991905 35,26.1217143 C34.9755,25.1614762 34.181,24.3809524 33.229,24.3809524 C32.7565,24.3809524 32.31725,24.5659524 31.99,24.9042381 C31.661,25.2425238 31.48775,25.6900476 31.5,26.1604762 C31.521,27.1224762 32.3155,27.9047619 33.271,27.9047619 L33.271,27.9047619 Z" id="Shape"></path>
                    <path d="M33.271,22.6190476 C33.74175,22.6190476 34.181,22.4340476 34.5065,22.0975238 C34.8355,21.761 35.0105,21.3134762 35,20.836 C34.9755,19.8757619 34.181,19.0952381 33.229,19.0952381 C32.7565,19.0952381 32.31725,19.2802381 31.99,19.6185238 C31.661,19.9568095 31.48775,20.4043333 31.5,20.8747619 C31.521,21.8367619 32.3155,22.6190476 33.271,22.6190476 L33.271,22.6190476 Z" id="Shape"></path>
                    <path d="M14,38.4761905 C19.79075,38.4761905 24.5,33.7349048 24.5,27.9047619 C24.5,22.074619 19.79075,17.3333333 14,17.3333333 C8.20925,17.3333333 3.5,22.074619 3.5,27.9047619 C3.5,33.7349048 8.20925,38.4761905 14,38.4761905 L14,38.4761905 Z M14,19.0952381 C18.82475,19.0952381 22.75,23.0471905 22.75,27.9047619 C22.75,32.7623333 18.82475,36.7142857 14,36.7142857 C9.17525,36.7142857 5.25,32.7623333 5.25,27.9047619 C5.25,23.0471905 9.17525,19.0952381 14,19.0952381 L14,19.0952381 Z" id="Shape"></path>
                    <path d="M14,33.1904762 C16.8945,33.1904762 19.25,30.8189524 19.25,27.9047619 C19.25,24.9905714 16.8945,22.6190476 14,22.6190476 C11.1055,22.6190476 8.75,24.9905714 8.75,27.9047619 C8.75,30.8189524 11.1055,33.1904762 14,33.1904762 L14,33.1904762 Z M14,24.3809524 C15.93025,24.3809524 17.5,25.961381 17.5,27.9047619 C17.5,29.8481429 15.93025,31.4285714 14,31.4285714 C12.06975,31.4285714 10.5,29.8481429 10.5,27.9047619 C10.5,25.961381 12.06975,24.3809524 14,24.3809524 L14,24.3809524 Z" id="Shape"></path>
                    <path d="M33.1695,0.732216363 C33.0155,0.170779665 32.522,-0.131367566 32.06175,0.055063704 L5.9465,10.7137894 L2.625,10.7137894 C1.17775,10.7137894 0,12.1559532 0,13.9281217 L0,41.7856678 C0,43.5578363 1.17775,45 2.625,45 L39.29975,45 C40.747,45 41.92475,43.5578363 41.92475,41.7856678 L41.92475,13.9281217 C41.92475,12.1559532 40.747,10.7137894 39.29975,10.7137894 L11.48,10.7137894 L32.6165,2.08652168 C33.07325,1.90009041 33.32175,1.29365306 33.1695,0.732216363 L33.1695,0.732216363 Z M40.1765,13.9281217 L40.1765,41.7856678 C40.1765,42.3771049 39.78275,42.8571118 39.3015,42.8571118 L2.625,42.8571118 C2.14375,42.8571118 1.75,42.3771049 1.75,41.7856678 L1.75,13.9281217 C1.75,13.3366845 2.14375,12.8566776 2.625,12.8566776 L39.29975,12.8566776 C39.78275,12.8566776 40.1765,13.3366845 40.1765,13.9281217 L40.1765,13.9281217 Z" id="Shape"></path>
                </g>
            </g>
        </g>
    </g>
</svg>