<?xml version="1.0" encoding="UTF-8"?>
<svg width="66px" height="66px" viewBox="0 0 66 66" version="1.1" xmlns="http://www.w3.org/2000/svg" xmlns:xlink="http://www.w3.org/1999/xlink">
    <!-- Generator: Sketch 51.3 (57544) - http://www.bohemiancoding.com/sketch -->
    <title>shuffle</title>
    <desc>Created with Sketch.</desc>
    <defs></defs>
    <g id="main" stroke="none" stroke-width="1" fill="none" fill-rule="evenodd">
        <g id="res" transform="translate(-543.000000, -752.000000)" stroke="#FFFFFF" stroke-width="2">
            <g id="shuffle" transform="translate(543.000000, 752.000000)">
                <g id="play-shuffle" transform="translate(11.000000, 15.000000)">
                    <polyline id="Shape" points="39 0 45 5.50000001 39 11"></polyline>
                    <path d="M45,6 L34.223717,6 C27.5026753,6 22.0543384,12.0310395 22.0543384,18.5210708 L22.0543384,18.5210708 L22.0543384,19.2488976 C22.0543384,25.7389289 16.6060013,31 9.88495971,31 L0,31" id="Shape"></path>
                    <polyline id="Shape" points="39 36 45 30.5000001 39 25"></polyline>
                    <path d="M45,31 L34.1000503,31 C30.9944148,31 28.1655946,29.8624075 26,28" id="Shape"></path>
                    <path d="M18,9 C15.8461853,7.13759249 13.0325364,6 9.9440106,6 L0,6" id="Shape"></path>
                </g>
            </g>
        </g>
    </g>
</svg>