<?xml version="1.0" encoding="UTF-8"?>
<svg width="66px" height="66px" viewBox="0 0 66 66" version="1.1" xmlns="http://www.w3.org/2000/svg" xmlns:xlink="http://www.w3.org/1999/xlink">
    <!-- Generator: Sketch 51.3 (57544) - http://www.bohemiancoding.com/sketch -->
    <title>star</title>
    <desc>Created with Sketch.</desc>
    <defs></defs>
    <g id="main" stroke="none" stroke-width="1" fill="none" fill-rule="evenodd">
        <g id="res" transform="translate(-543.000000, -841.000000)" fill="#FFFFFF">
            <g id="star" transform="translate(543.000000, 841.000000)">
                <path d="M19.7942139,40.1553833 L17.4158359,54.0030555 C17.2872198,54.7482125 17.4893309,55.5015357 17.9690895,56.0711215 C18.7040389,56.9428532 19.9657021,57.2041685 20.9803406,56.6733717 L33.4989792,50.0996574 L46.0176178,56.6733717 C46.3748849,56.8611921 46.7566503,56.9551023 47.1506649,56.9551023 C47.8713236,56.9551023 48.5552349,56.6325412 49.028869,56.06908 C49.5086276,55.4994942 49.7107387,54.746171 49.5821225,54.0010139 L47.2037445,40.1533418 L57.2337627,30.3907636 C57.9299231,29.7109353 58.1749063,28.7105875 57.8727604,27.7796516 C57.5767391,26.8670894 56.8111668,26.213801 55.8761478,26.0790603 L41.9713129,24.0620324 L35.7079106,11.3861963 C35.2832731,10.5307968 34.4360398,10 33.4989792,10 C32.5619187,10 31.7146853,10.5307968 31.2920894,11.3841548 L25.0286871,24.0620324 L11.1238522,26.0790603 C10.1888332,26.213801 9.4232609,26.8670894 9.1272396,27.7796516 C8.82509372,28.712629 9.07007687,29.7129769 9.7662373,30.3907636 L19.7942139,40.1553833 L19.7942139,40.1553833 Z M11.068731,28.4104832 C11.1013954,28.3084069 11.1912226,28.1328356 11.4157905,28.1001712 L25.8514221,26.0055653 C26.1841909,25.9586102 26.4720461,25.7503745 26.619036,25.4482287 L33.1212969,12.2905924 C33.3336156,11.8577888 33.6602598,11.8577888 33.8725785,12.2905924 L40.3748394,25.4482287 C40.5238709,25.748333 40.811726,25.9586102 41.1424533,26.0055653 L55.578085,28.1001712 C55.8046944,28.1328356 55.8945215,28.3104484 55.9271859,28.4104832 C55.9578088,28.5023518 56.0047639,28.7371274 55.8067359,28.9290308 L45.3929108,39.0672499 C45.1520107,39.3020254 45.0417683,39.6409187 45.098931,39.971646 L47.5671362,54.3480734 C47.5998006,54.5440599 47.5283472,54.6788006 47.4630184,54.7563786 C47.3833988,54.8543719 47.2649903,54.9135761 47.1506649,54.9135761 L33.9746548,48.041799 C33.8256234,47.964221 33.6623013,47.925432 33.4989792,47.925432 C33.3356571,47.925432 33.172335,47.964221 33.0253452,48.041799 L19.8472936,54.9135761 C19.7329681,54.9135761 19.6145596,54.8543719 19.5308571,54.7543371 C19.4655282,54.6767591 19.3940748,54.5420184 19.4267392,54.3460319 L21.8949444,39.9696044 C21.9521071,39.6388772 21.8418647,39.2999839 21.6009646,39.0652083 L11.189181,28.9269893 C10.991153,28.7350858 11.0401496,28.5023518 11.068731,28.4104832 L11.068731,28.4104832 Z" id="Shape"></path>
            </g>
        </g>
    </g>
</svg>