<?xml version="1.0" encoding="UTF-8"?>
<svg width="66px" height="66px" viewBox="0 0 66 66" version="1.1" xmlns="http://www.w3.org/2000/svg" xmlns:xlink="http://www.w3.org/1999/xlink">
    <!-- Generator: Sketch 51.3 (57544) - http://www.bohemiancoding.com/sketch -->
    <title>star-solid</title>
    <desc>Created with Sketch.</desc>
    <defs></defs>
    <g id="main" stroke="none" stroke-width="1" fill="none" fill-rule="evenodd">
        <g id="res" transform="translate(-543.000000, -924.000000)" fill="#FFFFFF">
            <g id="star-solid" transform="translate(543.000000, 924.000000)">
                <path d="M19.7942139,40.1553833 L17.4158359,54.0030555 C17.2872198,54.7482125 17.4893309,55.5015357 17.9690895,56.0711215 C18.7040389,56.9428532 19.9657021,57.2041685 20.9803406,56.6733717 L33.4989792,50.0996574 L46.0176178,56.6733717 C46.3748849,56.8611921 46.7566503,56.9551023 47.1506649,56.9551023 C47.8713236,56.9551023 48.5552349,56.6325412 49.028869,56.06908 C49.5086276,55.4994942 49.7107387,54.746171 49.5821225,54.0010139 L47.2037445,40.1533418 L57.2337627,30.3907636 C57.9299231,29.7109353 58.1749063,28.7105875 57.8727604,27.7796516 C57.5767391,26.8670894 56.8111668,26.213801 55.8761478,26.0790603 L41.9713129,24.0620324 L35.7079106,11.3861963 C35.2832731,10.5307968 34.4360398,10 33.4989792,10 C32.5619187,10 31.7146853,10.5307968 31.2920894,11.3841548 L25.0286871,24.0620324 L11.1238522,26.0790603 C10.1888332,26.213801 9.4232609,26.8670894 9.1272396,27.7796516 C8.82509372,28.712629 9.07007687,29.7129769 9.7662373,30.3907636 L19.7942139,40.1553833 L19.7942139,40.1553833 Z" id="Shape"></path>
            </g>
        </g>
    </g>
</svg>