<?xml version="1.0" encoding="UTF-8"?>
<svg width="66px" height="66px" viewBox="0 0 66 66" version="1.1" xmlns="http://www.w3.org/2000/svg" xmlns:xlink="http://www.w3.org/1999/xlink">
    <!-- Generator: Sketch 51.3 (57544) - http://www.bohemiancoding.com/sketch -->
    <title>user-solid</title>
    <desc>Created with Sketch.</desc>
    <defs></defs>
    <g id="main" stroke="none" stroke-width="1" fill="none" fill-rule="evenodd">
        <g id="res" transform="translate(-618.000000, -924.000000)" fill="#FFFFFF">
            <g id="user-solid" transform="translate(618.000000, 924.000000)">
                <path d="M14.2857143,55.8371237 C14.2857143,44.1251796 21.0274286,34.5955298 33,34.5955298 C44.9725714,34.5955298 51.7142857,44.1251796 51.7142857,55.8371237 C51.7142857,56.4542479 52.2262857,56.9551023 52.8571429,56.9551023 C53.488,56.9551023 54,56.4542479 54,55.8371237 C54,44.9055287 49.3154286,35.7246882 38.9588571,33.122034 C34.5424561,32.3788376 34.0606795,31.7042255 27.0411429,33.122034 C16.6845714,35.7246882 12,44.9055287 12,55.8371237 C12,56.4542479 14.2857143,56.4542479 14.2857143,55.8371237 Z M22,21.7977649 C22,15.9746883 26.8441826,11.2359573 32.7968408,11.2359573 C38.7494991,11.2359573 43.5936817,15.9746883 43.5936817,21.7977649 C43.5936817,27.6208415 38.7494991,32.3595725 32.7968408,32.3595725 C26.8441826,32.3595725 22,27.6208415 22,21.7977649 L22,21.7977649 Z" id="Shape"></path>
            </g>
        </g>
    </g>
</svg>