<?xml version="1.0" encoding="UTF-8"?>
<svg width="66px" height="66px" viewBox="0 0 66 66" version="1.1" xmlns="http://www.w3.org/2000/svg" xmlns:xlink="http://www.w3.org/1999/xlink">
    <!-- Generator: Sketch 51.3 (57544) - http://www.bohemiancoding.com/sketch -->
    <title>user</title>
    <desc>Created with Sketch.</desc>
    <defs></defs>
    <g id="main" stroke="none" stroke-width="1" fill="none" fill-rule="evenodd">
        <g id="res" transform="translate(-618.000000, -841.000000)" fill="#FFFFFF">
            <g id="user" transform="translate(618.000000, 841.000000)">
                <path d="M13.1428571,56.9551023 C13.7737143,56.9551023 14.2857143,56.4542479 14.2857143,55.8371237 C14.2857143,44.1251796 21.0274286,34.5955298 33,34.5955298 C44.9725714,34.5955298 51.7142857,44.1251796 51.7142857,55.8371237 C51.7142857,56.4542479 52.2262857,56.9551023 52.8571429,56.9551023 C53.488,56.9551023 54,56.4542479 54,55.8371237 C54,44.9055287 49.3154286,35.7246882 38.9588571,33.122034 C42.8925714,31.0403578 45.5714286,26.9686796 45.5714286,22.2977649 C45.5714286,15.5183425 39.9302857,10 33,10 C26.0697143,10 20.4285714,15.5183425 20.4285714,22.2977649 C20.4285714,26.9686796 23.1074286,31.0403578 27.0411429,33.122034 C16.6845714,35.7246882 12,44.9055287 12,55.8371237 C12,56.4542479 12.512,56.9551023 13.1428571,56.9551023 Z M22.7142857,22.2977649 C22.7142857,16.7503549 27.3291429,12.2359573 33,12.2359573 C38.6708571,12.2359573 43.2857143,16.7503549 43.2857143,22.2977649 C43.2857143,27.8451748 38.6708571,32.3595725 33,32.3595725 C27.3291429,32.3595725 22.7142857,27.8451748 22.7142857,22.2977649 L22.7142857,22.2977649 Z" id="Shape"></path>
            </g>
        </g>
    </g>
</svg>