<?xml version="1.0" encoding="UTF-8"?>
<svg width="66px" height="66px" viewBox="0 0 66 66" version="1.1" xmlns="http://www.w3.org/2000/svg" xmlns:xlink="http://www.w3.org/1999/xlink">
    <!-- Generator: Sketch 51.3 (57544) - http://www.bohemiancoding.com/sketch -->
    <title>vol</title>
    <desc>Created with Sketch.</desc>
    <defs></defs>
    <g id="main" stroke="none" stroke-width="1" fill="none" fill-rule="evenodd">
        <g id="res" transform="translate(-468.000000, -841.000000)" fill="#FFFFFF">
            <g id="vols" transform="translate(468.000000, 841.000000)">
                <g id="icons" transform="translate(9.000000, 9.000000)">
                    <path d="M24,0 C10.766,0 0,10.766 0,24 C0,37.234 10.766,48 24,48 C37.234,48 48,37.234 48,24 C48,10.766 37.234,0 24,0 L24,0 Z M24,46 C11.87,46 2,36.13 2,24 C2,11.87 11.87,2 24,2 C36.13,2 46,11.87 46,24 C46,36.13 36.13,46 24,46 L24,46 Z" id="Shape"></path>
                    <path d="M31.778,5.574 C31.274,5.36 30.684,5.596 30.468,6.104 C30.254,6.612 30.49,7.2 30.998,7.416 C33.14,8.324 35.066,9.624 36.722,11.278 C38.376,12.932 39.676,14.858 40.584,17.002 C40.746,17.382 41.116,17.612 41.504,17.612 C41.634,17.612 41.766,17.586 41.894,17.532 C42.402,17.316 42.64,16.73 42.424,16.222 C41.414,13.84 39.97,11.7 38.134,9.864 C36.298,8.026 34.16,6.584 31.778,5.574 L31.778,5.574 Z" id="Shape"></path>
                    <path d="M17.002,40.584 C14.86,39.676 12.934,38.376 11.278,36.722 C9.622,35.068 8.322,33.14 7.416,30.998 C7.2,30.49 6.612,30.254 6.104,30.468 C5.596,30.684 5.358,31.27 5.574,31.778 C6.582,34.158 8.026,36.298 9.864,38.136 C11.702,39.974 13.84,41.418 16.222,42.426 C16.348,42.48 16.48,42.506 16.612,42.506 C17,42.506 17.37,42.278 17.532,41.896 C17.748,41.386 17.51,40.8 17.002,40.584 L17.002,40.584 Z" id="Shape"></path>
                    <path d="M24,16 C19.588,16 16,19.588 16,24 C16,28.412 19.588,32 24,32 C28.412,32 32,28.412 32,24 C32,19.588 28.412,16 24,16 L24,16 Z M24,30 C20.692,30 18,27.308 18,24 C18,20.692 20.692,18 24,18 C27.308,18 30,20.692 30,24 C30,27.308 27.308,30 24,30 L24,30 Z" id="Shape"></path>
                    <path d="M24,20 C21.794,20 20,21.794 20,24 C20,26.206 21.794,28 24,28 C26.206,28 28,26.206 28,24 C28,21.794 26.206,20 24,20 L24,20 Z M24,26 C22.898,26 22,25.102 22,24 C22,22.898 22.898,22 24,22 C25.102,22 26,22.898 26,24 C26,25.102 25.102,26 24,26 L24,26 Z" id="Shape"></path>
                </g>
            </g>
        </g>
    </g>
</svg>