<?xml version="1.0" encoding="UTF-8"?>
<svg width="66px" height="66px" viewBox="0 0 66 66" version="1.1" xmlns="http://www.w3.org/2000/svg" xmlns:xlink="http://www.w3.org/1999/xlink">
    <!-- Generator: Sketch 51.3 (57544) - http://www.bohemiancoding.com/sketch -->
    <title>download</title>
    <desc>Created with Sketch.</desc>
    <defs></defs>
    <g id="main" stroke="none" stroke-width="1" fill="none" fill-rule="evenodd">
        <g id="res" transform="translate(-919.000000, -752.000000)" fill="#FFFFFF" stroke="#FFFFFF">
            <g id="download" transform="translate(919.000000, 752.000000)">
                <g transform="translate(11.000000, 9.000000)" id="Shape">
                    <path d="M22.5,44 C34.9063043,44 45,33.682 45,21 C45,20.448 44.5617391,20 44.0217391,20 C43.4817391,20 43.0434783,20.448 43.0434783,21 C43.0434783,32.58 33.8282609,42 22.5,42 C11.1717391,42 1.95652174,32.58 1.95652174,21 C1.95652174,20.448 1.51826087,20 0.97826087,20 C0.43826087,20 0,20.448 0,21 C0,33.682 10.0936957,44 22.5,44 L22.5,44 Z"></path>
                    <path d="M23,0 C22.447908,0 21.9998333,0.464 21.9998333,1.03571429 L21.9998333,25.4640714 L15.7067845,18.9473571 C15.3167195,18.5434286 14.6826138,18.5434286 14.2925488,18.9473571 C13.9024837,19.3512857 13.9024837,20.0079286 14.2925488,20.4118571 L22.291882,28.6955 C22.3838973,28.7907857 22.495916,28.8674286 22.6179363,28.9212857 C22.7399567,28.9730714 22.8699783,29 23,29 C23.1300217,29 23.2600433,28.9730714 23.3820637,28.9212857 C23.5060843,28.8695 23.6161027,28.7928571 23.708118,28.6955 L31.7074512,20.4118571 C32.0975163,20.0079286 32.0975163,19.3512857 31.7074512,18.9473571 C31.3173862,18.5434286 30.6832805,18.5434286 30.2932155,18.9473571 L24.0001667,25.4640714 L24.0001667,1.03571429 C24.0001667,0.464 23.552092,0 23,0 L23,0 Z"></path>
                </g>
            </g>
        </g>
    </g>
</svg>